<svg width="60" height="60" viewBox="0 0 60 60" fill="none" xmlns="http://www.w3.org/2000/svg">
<rect width="60" height="60" rx="13" fill="#0D68E0"/>
<path d="M54.8786 24.1109C54.8786 24.1109 47.639 23.1843 45.6421 26.9478L45.6459 26.9276C46.1146 23.8003 40.1031 24.0056 40.1031 24.0056C35.6107 24.0214 33.6554 25.5219 33.6554 25.5219C30.181 27.9384 30.1002 31.7922 30.1002 31.7922C30.0518 32.6767 30.3481 33.4822 30.3481 33.4822C29.6047 33.4611 26.9868 33.598 26.9868 33.598C25.1016 33.6296 24.1427 33.4085 24.1427 33.4085C22.613 33.0926 22.6344 32.0397 22.6344 32.0397C22.5267 29.5231 23.8949 28.0069 23.8949 28.0069C25.2954 26.1221 28.6135 26.2168 28.6135 26.2168C29.9171 26.2168 31.4685 26.3853 31.4685 26.3853C32.1149 26.4905 31.9533 25.8062 31.9533 25.8062L31.8348 24.9006C31.7166 24.1267 30.5313 24.0582 30.5313 24.0582C28.0426 23.8476 25.7156 24.2898 25.7156 24.2898C21.9127 25.0163 20.4691 27.7487 20.4691 27.7487C21.3579 24.0371 16.0414 24.0371 16.0414 24.0371C13.7305 23.9107 10.3854 24.1477 10.3854 24.1477C8.80178 24.2582 8.5917 25.1269 8.5917 25.1269L8.26851 26.1377C8.26851 26.1377 8.10691 26.501 8.6725 26.4536C8.6725 26.4536 12.0661 26.1061 13.8921 26.1061C13.8921 26.1061 17.3018 25.8376 17.221 27.5118C17.221 27.5118 17.2372 28.2542 16.4777 28.3331L10.4986 29.2018C10.4986 29.2018 5.06887 29.881 5.00423 33.1346C5.00423 33.1346 4.72951 35.409 8.60786 35.8038C8.60786 35.8038 10.6602 35.9933 12.8256 35.9144C12.8256 35.9144 16.262 35.7384 17.1831 35.4383C17.1831 35.4383 18.1233 35.2448 18.3769 34.5012L19.1926 31.8868C19.1926 31.8868 18.7456 35.788 24.1644 35.9144C24.1644 35.9144 27.2778 35.9669 28.7108 35.7985C28.7108 35.7985 30.2405 35.7565 30.456 34.893L30.6392 34.0506C30.6392 34.0506 31.8458 36.0091 35.8695 35.9933C35.8695 35.9933 38.9237 36.0407 40.6205 35.8828C40.6205 35.8828 41.9911 35.8106 42.2365 34.9983L42.6082 33.9085C42.6082 33.9085 42.7973 33.4976 42.1395 33.561C42.1395 33.561 38.8914 33.7663 37.5017 33.7663C37.5017 33.7663 36.3867 33.7663 35.611 33.7032C35.611 33.7032 33.2355 33.6242 33.4779 31.7763L38.7298 31.1129C38.7298 31.1129 43.5454 30.7181 45.0645 28.5227L42.9798 35.3142C42.9798 35.3142 42.766 35.8474 43.4162 35.8354H46.0179C46.0179 35.8354 46.5188 35.8038 46.6481 35.2984L48.7812 27.9541C48.7812 27.9541 49.0559 26.3273 51.4799 26.3431C51.4799 26.3431 53.4352 26.2957 54.8088 26.4062C54.8088 26.4062 55.4862 26.4732 55.6168 26.1219L55.9561 25.1269C55.9559 25.1269 56.3333 24.2444 54.8786 24.1109ZM15.299 33.6189C15.299 33.6189 14.0749 33.7795 11.8825 33.7795C11.8825 33.7795 8.50263 33.8868 8.48427 32.5654C8.48427 32.5654 8.48427 31.1726 10.5123 30.9404L16.3952 30.1904L15.299 33.6189ZM42.1554 27.6224C41.6868 28.7438 38.568 29.0913 38.568 29.0913L33.8978 29.6914C33.9463 28.9807 34.7543 27.6698 34.7543 27.6698C35.7077 26.0114 38.3417 26.0114 38.3417 26.0114C39.8931 25.9324 40.9435 26.1535 40.9435 26.1535C42.8018 26.4694 42.1554 27.6224 42.1554 27.6224Z" fill="white"/>
</svg>
