<svg width="60" height="60" viewBox="0 0 60 60" fill="none" xmlns="http://www.w3.org/2000/svg">
<rect width="60" height="60" rx="13" fill="#0D68E0"/>
<path d="M23.444 44.383C22.8131 43.9619 22.2528 43.4462 21.7846 42.8506C21.2738 42.2336 20.8002 41.5847 20.3654 40.913C19.3436 39.4206 18.5446 37.7882 17.9911 36.0679C17.3241 34.0664 17 32.1502 17 30.2753C17 28.1831 17.4535 26.3575 18.3365 24.8251C18.9901 23.6258 19.9639 22.6224 21.1377 21.9175C22.2715 21.2112 23.592 20.8248 24.9259 20.7981C25.3928 20.7981 25.8997 20.8647 26.4332 20.998C26.82 21.1046 27.2869 21.2778 27.8605 21.491C28.5941 21.7709 28.9943 21.9441 29.1276 21.9841C29.5545 22.144 29.9146 22.2106 30.1947 22.2106C30.4082 22.2106 30.715 22.144 31.0551 22.0374C31.2485 21.9708 31.6153 21.8508 32.1355 21.6243C32.6504 21.4377 33.0586 21.2778 33.3827 21.1579C33.8763 21.0113 34.3538 20.8781 34.7833 20.8114C35.3035 20.7315 35.8197 20.7048 36.3146 20.7448C37.2616 20.8114 38.1287 21.0113 38.9023 21.3045C40.2629 21.8508 41.3607 22.7037 42.1797 23.9163C41.8329 24.1295 41.5127 24.3774 41.2126 24.6492C40.563 25.2222 40.0121 25.9018 39.5719 26.6547C38.9984 27.6808 38.7049 28.8401 38.7129 30.0127C38.7329 31.4559 39.0997 32.7245 39.8334 33.8239C40.3496 34.6234 41.0392 35.3083 41.8795 35.8707C42.293 36.1505 42.6559 36.3437 43 36.4703C42.8399 36.97 42.6639 37.4564 42.4598 37.9361C41.9969 39.0115 41.446 40.0416 40.7924 41.0143C40.2162 41.8538 39.7627 42.4801 39.4185 42.8932C38.8823 43.5329 38.3648 44.0126 37.8446 44.355C37.271 44.7348 36.5974 44.936 35.9078 44.936C35.4409 44.956 34.974 44.8961 34.5285 44.7668C34.1417 44.6402 33.7602 44.4976 33.3867 44.3364C32.9959 44.1578 32.5917 44.0059 32.1796 43.8833C31.6727 43.7501 31.1525 43.6861 30.6269 43.6874C30.0934 43.6874 29.5732 43.7541 29.0796 43.8807C28.6661 43.9979 28.266 44.1418 27.8698 44.3137C27.3096 44.5469 26.9427 44.7002 26.7293 44.7668C26.2971 44.8947 25.8543 44.972 25.4088 45C24.7152 45 24.0696 44.8001 23.4266 44.4003L23.444 44.383ZM32.5864 19.784C31.6794 20.2371 30.8177 20.429 29.9546 20.365C29.8213 19.5042 29.9546 18.6194 30.3148 17.6506C30.6349 16.8244 31.0618 16.0782 31.6487 15.4119C32.2623 14.719 32.9959 14.146 33.8229 13.7329C34.7033 13.2798 35.5436 13.04 36.3439 13C36.4506 13.9061 36.3439 14.799 36.0105 15.7584C35.7063 16.6112 35.2528 17.3974 34.6766 18.1037C34.0963 18.7966 33.3761 19.3696 32.5611 19.7827L32.5864 19.784Z" fill="white"/>
</svg>
