<svg width="60" height="60" viewBox="0 0 60 60" fill="none" xmlns="http://www.w3.org/2000/svg">
<rect width="60" height="60" rx="13" fill="#0D68E0"/>
<path d="M54.8 26.8099V24H45.1C43.075 24 42.1625 25.3317 42.0125 26.6235V26.6634V24H39.1625V26.8099H42H54.8ZM42 27.822L39.15 27.6489V30.885C39.15 31.8971 38.675 32.2034 37.025 32.2034H34.75C33.3875 32.2034 32.8125 31.7906 32.8125 30.885V27.3426L29.925 27.1162V31.138H29.8625C29.7 29.9661 29.2875 28.6077 26.5375 28.408L17.5 27.7688C17.5 29.247 18.4875 30.1259 20.0375 30.299L26.3375 30.9782C26.8375 31.0182 27.2 31.178 27.2 31.6174C27.2 32.0969 26.825 32.1501 26.25 32.1501H17.3875V27.7688L14.5 27.569V35H26.2625C28.8875 35 29.725 33.5484 29.85 32.3366H29.9125C30.2375 34.2542 31.8125 35 34.475 35H37.4125C40.525 35 42 33.9879 42 31.6174V27.822ZM51.1625 28.3947L42.125 27.822C42.125 29.3002 43.0375 30.2857 44.5875 30.4189L51.025 30.9516C51.525 30.9915 51.825 31.1247 51.825 31.5642C51.825 31.977 51.475 32.1368 50.75 32.1368H41.975V35H50.9375C53.7625 35 55 33.9479 55 31.5508C55 29.3935 53.8875 28.5811 51.1625 28.3947ZM29.925 24H32.8125V26.8099H29.925V24ZM12.9125 27.4358L9.775 27.1029L5 35H8.5125L12.9125 27.4358ZM29.4 24H20.5875C18.5375 24 17.6375 25.3584 17.425 26.6634V24H12.5375C11.85 24 11.525 24.2264 11.2 24.7324L9.85 26.8099H29.4V24Z" fill="white"/>
</svg>
