<svg width="1400" height="500" viewBox="0 0 1400 500" fill="none" xmlns="http://www.w3.org/2000/svg">
<g clip-path="url(#clip0)">
<rect width="1400" height="500" fill="#0D68E0"/>
<path d="M851.682 -44.9896L671.952 -128.707C663.319 -132.728 653.024 -128.976 649.003 -120.343L540.293 113.041C536.272 121.674 540.023 131.969 548.657 135.991L728.386 219.708C737.019 223.73 747.315 219.977 751.336 211.345L860.046 -22.0401C864.067 -30.673 860.315 -40.9685 851.682 -44.9896ZM742.393 207.179C740.669 210.881 736.254 212.49 732.552 210.765L552.822 127.048C549.121 125.324 547.512 120.909 549.236 117.207L657.946 -116.178C659.67 -119.88 664.085 -121.489 667.787 -119.764L847.516 -36.0467C851.218 -34.3225 852.827 -29.9075 851.103 -26.2057L742.393 207.179Z" fill="white"/>
<path d="M836.149 -17.4652L660.876 -99.1066C659.23 -99.8733 657.274 -99.1602 656.507 -97.5141L562.597 104.097C561.83 105.743 562.543 107.7 564.19 108.466L739.462 190.108C741.108 190.875 743.065 190.161 743.831 188.515L837.741 -13.0957C838.508 -14.7424 837.795 -16.6985 836.149 -17.4652ZM739.258 182.757L569.948 103.893L661.08 -91.7561L830.391 -12.8918L739.258 182.757Z" fill="white"/>
<path d="M648.937 155.492C647.757 154.943 646.384 154.884 645.161 155.329C643.946 155.772 642.93 156.707 642.383 157.881C641.836 159.056 641.774 160.434 642.217 161.649C642.663 162.873 643.591 163.886 644.772 164.435C645.946 164.982 647.325 165.044 648.542 164.596C649.763 164.156 650.779 163.221 651.326 162.047C651.873 160.872 651.935 159.493 651.486 158.276C651.04 157.052 650.112 156.04 648.937 155.492Z" fill="white"/>
<g clip-path="url(#clip1)">
<path d="M1174.61 370.259L1153.81 360.333C1145.65 356.439 1135.83 359.916 1131.93 368.075C1130.77 370.528 1130.26 373.128 1130.35 375.664C1124.26 375.7 1118.42 379.139 1115.62 385.004C1114.15 388.077 1113.74 391.38 1114.21 394.514C1109.23 395.517 1104.88 398.876 1102.66 403.533C1101.76 405.402 1101.26 407.363 1101.1 409.325L1089.08 403.587C1081.16 399.819 1070.98 403.425 1067.2 411.33C1065.31 415.288 1065.07 419.746 1066.54 423.879C1068 428.013 1070.99 431.326 1074.95 433.215L1126.26 457.697L1118.4 460.479C1104.74 465.314 1097.55 480.371 1102.39 494.03C1103.35 496.765 1106.36 498.2 1109.1 497.231L1169.06 476.007C1198.85 465.465 1214.51 432.652 1203.96 402.867C1198.86 388.445 1188.44 376.865 1174.61 370.259ZM1165.56 466.095L1111.39 485.267C1111.4 478.772 1115.44 472.679 1121.9 470.391L1141.73 463.375C1143.73 462.666 1145.12 460.815 1145.22 458.691C1145.34 456.564 1144.16 454.584 1142.24 453.668L1079.49 423.724C1078.07 423.055 1076.99 421.855 1076.46 420.378C1075.94 418.901 1076.03 417.296 1076.71 415.874C1078.07 413.039 1081.74 411.741 1084.57 413.092L1127.19 433.43C1129.81 434.679 1132.95 433.567 1134.2 430.95C1134.82 429.638 1134.85 428.198 1134.41 426.929C1133.96 425.66 1133.02 424.563 1131.72 423.932L1114.94 415.928C1113.52 415.259 1112.45 414.055 1111.93 412.578C1111.4 411.101 1111.48 409.5 1112.16 408.077C1113.52 405.232 1117.18 403.937 1120.02 405.295L1130.09 410.098C1132.7 411.347 1135.85 410.235 1137.1 407.618C1137.71 406.306 1137.75 404.866 1137.3 403.597C1136.85 402.328 1135.92 401.231 1134.61 400.6L1127.9 397.398C1126.48 396.729 1125.41 395.525 1124.89 394.048C1124.36 392.571 1124.44 390.97 1125.12 389.548C1126.53 386.609 1130.04 385.363 1132.98 386.766L1139.69 389.968C1142.31 391.217 1145.45 390.104 1146.7 387.487C1147.32 386.176 1147.36 384.735 1146.91 383.466C1146.46 382.198 1145.52 381.101 1144.22 380.48C1141.28 379.077 1140.04 375.559 1141.44 372.62C1142.84 369.681 1146.36 368.435 1149.3 369.838L1170.1 379.763C1181.37 385.143 1189.88 394.6 1194.05 406.376C1202.66 430.699 1189.88 457.486 1165.56 466.095Z" fill="white"/>
<path d="M1044.72 252.328L925.78 294.427C912.121 299.261 904.936 314.318 909.77 327.977L976.427 516.304C981.261 529.963 996.318 537.148 1009.98 532.314L1089.27 504.248C1092.01 503.28 1093.44 500.273 1092.47 497.538C1091.51 494.802 1088.5 493.367 1085.76 494.336L1006.47 522.401C998.271 525.303 989.24 520.993 986.338 512.796L919.682 324.469C916.781 316.271 921.091 307.24 929.288 304.338L1048.23 262.24C1056.43 259.339 1065.46 263.648 1068.36 271.846L1103.44 370.965C1104.41 373.701 1107.42 375.135 1110.15 374.167C1112.89 373.199 1114.32 370.192 1113.36 367.457L1078.27 268.337C1073.44 254.679 1058.38 247.494 1044.72 252.328Z" fill="white"/>
<path d="M1081.64 451.18L972.612 489.77C969.876 490.738 968.442 493.745 969.41 496.48C970.378 499.216 973.385 500.651 976.12 499.682L1085.15 461.092C1087.89 460.124 1089.32 457.117 1088.35 454.382C1087.39 451.646 1084.38 450.212 1081.64 451.18Z" fill="white"/>
<path d="M1068.84 478.02L1049.01 485.037C1046.28 486.005 1044.84 489.011 1045.81 491.747C1046.78 494.483 1049.78 495.917 1052.52 494.949L1072.34 487.932C1075.08 486.964 1076.51 483.958 1075.55 481.222C1074.58 478.486 1071.57 477.052 1068.84 478.02Z" fill="white"/>
<path d="M936.304 324.163C939.041 323.194 940.475 320.189 939.506 317.452C938.537 314.715 935.533 313.281 932.796 314.25C930.059 315.219 928.625 318.223 929.594 320.961C930.563 323.698 933.567 325.131 936.304 324.163Z" fill="white"/>
</g>
<path d="M1066.88 -81.6903C1057.11 -79.762 1049.49 -75.0086 1046.53 -68.9995L1045.31 -66.4883V44.5V155.488L1046.53 158C1049.13 163.291 1055.72 167.82 1064.15 170.152C1067.38 171.049 1069.08 171.139 1081.32 171.318L1094.91 171.498L1095.41 172.574C1096.03 173.964 1097.11 173.964 1098.45 172.529C1099.8 171.094 1100.43 171.094 1101.06 172.529C1101.73 173.964 1103.16 173.964 1104.11 172.529L1104.82 171.408H1267.96C1414.29 171.408 1431.46 171.318 1434.78 170.69C1444.92 168.807 1452.23 164.233 1455.32 157.955L1456.53 155.488V44.5V-66.4883L1455.32 -68.9547C1452.23 -75.2328 1444.92 -79.8069 1434.78 -81.6903C1431.46 -82.3181 1412.81 -82.4078 1250.52 -82.363C1099.93 -82.3181 1069.49 -82.2284 1066.88 -81.6903ZM1432.54 44.5V148.986H1250.92H1069.31V44.5V-59.9859H1250.92H1432.54V44.5Z" fill="white"/>
<g clip-path="url(#clip2)">
<path d="M300.901 378.481L138.083 302.169C125.236 296.148 109.937 301.679 103.917 314.525L3.07037 529.689C-2.95034 542.535 2.58547 557.831 15.433 563.853L178.251 640.165C191.096 646.185 206.394 640.655 212.416 627.808L313.263 412.643C319.283 399.798 313.746 384.501 300.901 378.481ZM102.829 589.233C97.3262 586.654 94.9385 580.086 97.5261 574.566C100.109 569.055 106.688 566.679 112.191 569.258C117.702 571.841 120.086 578.418 117.503 583.929C114.916 589.45 108.34 591.817 102.829 589.233ZM203.604 593.652C202.291 596.455 198.951 597.658 196.15 596.345L37.6586 522.061C34.8565 520.747 33.6469 517.411 34.9602 514.609L123.49 325.724C124.804 322.921 128.141 321.717 130.943 323.03L289.435 397.315C292.236 398.627 293.448 401.964 292.134 404.766L203.604 593.652Z" fill="white"/>
</g>
</g>
<defs>
<clipPath id="clip0">
<rect width="1400" height="500" fill="white"/>
</clipPath>
<clipPath id="clip1">
<rect width="252.348" height="252.348" fill="white" transform="translate(901 303.197) rotate(-19.4908)"/>
</clipPath>
<clipPath id="clip2">
<rect width="289" height="289" fill="white" transform="translate(88.6497 279) rotate(25.1123)"/>
</clipPath>
</defs>
</svg>
