<svg width="1400" height="500" viewBox="0 0 1400 500" fill="none" xmlns="http://www.w3.org/2000/svg">
<g clip-path="url(#clip0)">
<rect width="1400" height="500" fill="#0D68E0"/>
<g clip-path="url(#clip1)">
<path d="M1143.91 172.79H1143.83V43.128H947.188V172.79H947.305L919 195.01V204.089H1172.22V195.01L1143.91 172.79ZM965.144 56.186L1128.38 56.43L1127.07 159.886L964.795 160.535L965.144 56.186ZM1030.97 195.072L1034.94 189.348H1060.67L1065.42 195.072H1030.97ZM946.159 184.159L955.497 177.659H1137.25L1150.22 184.886L946.159 184.159Z" fill="white"/>
</g>
<g clip-path="url(#clip2)">
<path d="M139.571 524.537L139.494 524.499L197.44 408.505L21.5298 320.628L-36.4158 436.621L-36.3112 436.674L-71.5625 443.902L-75.6199 452.024L150.905 565.186L154.963 557.065L139.571 524.537ZM31.7574 340.334L177.672 413.5L130.275 505.469L-15.1882 433.527L31.7574 340.334ZM28.5801 493.998L34.6879 490.651L57.7073 502.151L59.3923 509.391L28.5801 493.998ZM-42.4172 446.332L-31.1587 444.69L131.435 525.915L139.808 538.177L-42.4172 446.332Z" fill="white"/>
</g>
<path d="M1331.17 185.349L1103.96 302.806C1097.49 306.147 1094.94 314.17 1098.28 320.633L1179.28 477.33C1182.63 483.794 1190.65 486.349 1197.11 483.007L1287.21 436.429C1288.95 439.797 1294.67 455.122 1294.66 472.294L1283.83 477.895L1285.4 480.931C1286.76 483.571 1290.04 484.614 1292.67 483.25L1369.26 443.656C1371.9 442.292 1372.94 439.018 1371.58 436.378L1370.01 433.342L1359.18 438.942C1345.16 429.018 1335.96 415.495 1334.22 412.128L1424.32 365.55C1430.79 362.209 1433.34 354.186 1430 347.722L1348.99 191.026C1345.65 184.562 1337.63 182.007 1331.17 185.349ZM1369.06 436.313L1369.62 437.39C1370.43 438.957 1369.82 440.889 1368.25 441.698L1291.66 481.291C1290.1 482.1 1288.17 481.485 1287.36 479.918L1286.8 478.841L1369.06 436.313ZM1352 442.5L1301.5 468C1301.32 450.998 1295.77 435.916 1294 432.5L1328 415.5C1329.77 418.916 1338.24 432.522 1352 442.5ZM1415.28 341.273C1417.51 345.594 1419.6 351.54 1415.28 353.773L1193.28 467.773C1188.96 470.007 1186.44 464.594 1184.2 460.273L1179.28 448.273L1408.78 331.273L1415.28 341.273ZM1400.2 321.273L1287.36 381.773L1175.2 436.43L1112.7 318.273C1112.7 318.273 1113.38 313.507 1117.7 311.273L1335.7 198.273C1340.03 196.04 1321.7 198.273 1339.2 202.773L1373.2 267.773L1400.2 321.273Z" fill="white"/>
<path d="M1369.06 436.313L1369.62 437.39C1370.43 438.957 1369.82 440.889 1368.25 441.698L1291.66 481.291C1290.1 482.1 1288.17 481.485 1287.36 479.918L1286.8 478.841L1369.06 436.313Z" fill="white"/>
<path d="M1326.2 201.878L1110.88 313.193C1106.55 315.43 1108.64 318.793 1110.88 323.12L1167.58 432.808C1169.82 437.134 1175.14 438.829 1179.47 436.592L1286 383L1391.01 327.235C1395.33 324.999 1401.24 320.69 1399 316.363L1339.5 201.878C1337.26 197.551 1330.53 199.641 1326.2 201.878ZM1392.83 316.363C1394.51 319.603 1393.23 323.602 1390 325.277L1178.45 434.633C1175.21 436.308 1171.22 435.035 1169.54 431.795L1112.84 322.107C1111.16 318.867 1112.44 314.868 1115.68 313.193L1327.22 203.837C1330.46 202.162 1334.46 203.435 1336.13 206.675L1392.83 316.363Z" fill="white"/>
<rect x="1104.11" y="312.294" width="249.721" height="4.68985" transform="rotate(-27.1822 1104.11 312.294)" fill="white"/>
<rect x="1103" y="318.255" width="6.08306" height="137.771" transform="rotate(-26.8143 1103 318.255)" fill="white"/>
<rect x="1166.46" y="435.212" width="4" height="4.42422" transform="rotate(-43.0311 1166.46 435.212)" fill="#FCFCFC"/>
<g clip-path="url(#clip3)">
<path d="M689.207 207.188C688.59 207.348 683.6 210.189 681.91 211.314C680.059 212.574 679.817 213.431 679.012 221.47C678.341 228.277 674.639 264.64 672.976 280.825C672.546 285.086 671.044 299.878 669.622 313.652C668.227 327.425 666.617 343.262 666.054 348.836C665.463 354.41 664.9 359.072 664.766 359.179C664.632 359.313 638.151 374.641 605.902 393.238C573.654 411.835 546.985 427.297 546.637 427.619C545.161 428.959 545 429.843 545 436.381C545 442.92 545.188 443.831 546.637 445.117C547.28 445.68 724.702 548.097 727.278 549.41C729.88 550.724 724.676 553.51 794.432 513.261C829.229 493.217 858.017 476.496 858.419 476.121C858.822 475.746 859.332 475.049 859.546 474.594C859.815 474.004 862.176 450.342 867.515 394.364L875.08 314.938L874.571 313.732C874.302 313.062 873.632 312.178 873.122 311.749C872.237 311.052 695.378 208.929 692.802 207.616C691.622 207.027 690.415 206.893 689.207 207.188ZM691.005 221.819C692.078 222.462 730.873 244.864 777.207 271.58C823.541 298.297 861.478 320.19 861.505 320.19C861.532 320.217 860.593 329.569 859.439 340.984C858.259 352.4 856.756 367.165 856.085 373.811C855.415 380.429 854.637 388.147 854.341 390.961C854.046 393.747 852.678 407.333 851.256 421.107C849.861 434.881 848.359 449.565 847.929 453.746C847.527 457.899 847.124 461.383 847.044 461.436C846.937 461.544 675.229 362.609 674.746 362.154C674.612 362.02 674.88 358.349 675.363 353.659C676.517 342.217 680.568 302.584 681.695 291.544C682.205 286.533 683.654 272.304 684.915 259.924C686.176 247.544 687.571 233.931 688 229.643C688.456 225.383 688.805 221.604 688.805 221.283C688.805 220.934 688.859 220.666 688.912 220.666C688.966 220.666 689.905 221.176 691.005 221.819ZM685.263 373.971C692.454 378.125 711.127 388.897 726.768 397.928C742.41 406.958 771.573 423.787 791.561 435.309C811.549 446.832 831.563 458.381 836.044 460.981C840.498 463.553 844.12 465.724 844.039 465.777C843.959 465.858 818.149 480.784 786.678 498.925L729.451 531.939L725.159 529.474C722.798 528.107 684.163 505.839 639.305 479.953C594.473 454.067 557.637 432.844 557.476 432.79C557.315 432.71 557.368 432.549 557.61 432.389C558.656 431.692 671.795 366.441 671.983 366.441C672.09 366.441 678.073 369.845 685.263 373.971ZM641.666 486.947C716.68 530.224 728.512 536.977 729.451 537.004C730.39 537.004 737.554 532.93 790.327 502.489C823.22 483.49 850.29 467.894 850.451 467.841C850.693 467.734 850.719 468.002 850.612 468.698L850.451 469.69L789.951 504.606L729.478 539.496L728.217 538.772C727.546 538.397 688.215 515.7 640.834 488.367L554.659 438.659V437.775C554.659 437.319 554.739 436.917 554.82 436.917C554.9 436.917 593.99 459.427 641.666 486.947Z" fill="white"/>
<path d="M668.549 377.267C666.376 378.232 623.637 403.046 623.02 403.716C622.107 404.681 622.054 405.699 622.885 406.69C623.207 407.092 655.751 426.011 697.793 450.262C738.681 473.817 772.485 493.325 772.968 493.566C773.451 493.807 774.095 493.995 774.444 493.995C775.034 493.995 820.215 468.136 821.02 467.358C821.234 467.171 821.449 466.528 821.529 465.938C821.637 465.081 821.556 464.759 821.046 464.196C820.322 463.419 671.071 377.267 670.024 377.053C669.649 376.973 669.005 377.053 668.549 377.267ZM741.31 423.546C780.668 446.243 813.212 465.027 813.615 465.268L814.312 465.724L794.566 477.113C783.7 483.383 774.578 488.501 774.256 488.474C773.961 488.474 746.193 472.584 712.549 453.156C678.905 433.728 646.522 415.051 640.593 411.648C634.663 408.218 629.807 405.377 629.781 405.297C629.781 405.136 669.22 382.278 669.542 382.252C669.649 382.252 701.924 400.822 741.31 423.546Z" fill="white"/>
<path d="M638.554 446.269C630.156 451.093 623.127 455.246 622.912 455.461C622.698 455.675 622.456 456.265 622.376 456.8C622.241 457.578 622.349 457.872 622.966 458.569C623.985 459.641 683.305 493.807 684.378 493.941C685.049 494.021 687.92 492.467 700.207 485.42C709.276 480.221 715.58 476.416 716.144 475.853C716.895 475.049 717.002 474.781 716.868 474.084C716.761 473.602 716.412 472.959 716.09 472.637C715.768 472.343 701.978 464.277 685.478 454.764C663.478 442.089 655.215 437.453 654.624 437.453C654.034 437.453 649.446 439.972 638.554 446.269ZM682.607 458.73C697.39 467.278 709.383 474.352 709.276 474.46C708.659 475.049 684.7 488.662 684.405 488.582C683.868 488.448 629.781 457.202 629.781 457.042C629.807 456.961 635.388 453.665 642.202 449.753C653.041 443.509 654.678 442.652 655.161 442.92C655.456 443.08 667.824 450.208 682.607 458.73Z" fill="white"/>
</g>
<g clip-path="url(#clip4)">
<path d="M-100.252 -101.428C-100.556 -100.867 -101.894 -95.2833 -102.228 -93.2803C-102.574 -91.0682 -102.113 -90.3058 -96.796 -84.223C-92.2866 -79.0809 -68.2763 -51.5216 -57.6 -39.2437C-54.7836 -36.0179 -45.0142 -24.8101 -35.9331 -14.357C-26.8336 -3.92352 -16.3748 8.07706 -12.6917 12.2983C-9.027 16.5392 -6.00893 20.1377 -6.0224 20.3088C-6.0163 20.4983 -12.93 50.3037 -21.4005 86.554C-29.8711 122.804 -36.8154 152.838 -36.8191 153.313C-36.8498 155.306 -36.3144 156.028 -31.5421 160.497C-26.7698 164.966 -25.9764 165.452 -24.0473 165.274C-23.1964 165.189 172.837 105.7 175.556 104.718C178.293 103.716 176.769 109.42 195.075 30.9933C204.232 -8.10646 211.706 -40.5484 211.707 -41.0986C211.709 -41.6488 211.548 -42.4971 211.363 -42.9651C211.116 -43.5639 195.459 -61.4616 158.251 -103.624L105.451 -163.439L104.222 -163.891C103.55 -164.153 102.446 -164.268 101.785 -164.189C100.671 -164.019 -94.7623 -104.741 -97.4812 -103.759C-98.7185 -103.3 -99.6416 -102.51 -100.252 -101.428ZM-88.3439 -92.7382C-87.1409 -93.0819 -44.2707 -106.084 6.90184 -121.641C58.0744 -137.197 99.9861 -149.921 100.004 -149.94C100.042 -149.941 106.226 -142.863 113.77 -134.218C121.295 -125.553 131.045 -114.363 135.437 -109.331C139.809 -104.317 144.91 -98.4739 146.762 -96.3351C148.595 -94.2147 157.575 -83.929 166.657 -73.476C175.756 -63.0425 185.447 -51.9079 188.205 -48.737C190.961 -45.6041 193.229 -42.9291 193.213 -42.8337C193.218 -42.6821 3.63358 15.0164 2.97097 15.0575C2.78147 15.0638 0.285332 12.3585 -2.80732 8.80043C-10.3703 0.136818 -36.5282 -29.9117 -43.8161 -38.281C-47.1251 -42.0784 -56.5205 -52.8625 -64.6946 -62.2455C-72.8687 -71.6286 -81.8509 -81.9522 -84.6868 -85.1963C-87.4849 -88.4417 -90.0042 -91.279 -90.2389 -91.4988C-90.4932 -91.7369 -90.6521 -91.9593 -90.6154 -91.9985C-90.5787 -92.0376 -89.5652 -92.375 -88.3439 -92.7382ZM18.7855 15.4592C26.7321 13.0504 47.3591 6.78476 64.6424 1.54128C81.9257 -3.70222 114.144 -13.4848 136.217 -20.1971C158.29 -26.9093 180.401 -33.6229 185.361 -35.1163C190.283 -36.6085 194.343 -37.7684 194.328 -37.673C194.331 -37.5593 187.583 -8.51831 179.311 26.8527L164.289 91.1889L159.555 92.6369C156.944 93.4259 114.282 106.403 64.7242 121.449C15.1849 136.477 -25.4859 148.856 -25.635 148.937C-25.8038 148.999 -25.8844 148.85 -25.8367 148.564C-25.63 147.324 4.08299 20.1423 4.21137 20.0053C4.28473 19.9269 10.8584 17.8864 18.7855 15.4592ZM71.4429 124.507C154.308 99.3378 167.324 95.318 167.986 94.6509C168.628 93.9656 170.551 85.9528 184.407 26.6257C193.024 -10.3693 200.146 -40.7886 200.217 -40.9428C200.304 -41.1923 200.517 -41.0287 200.953 -40.4741L201.566 -39.6788L185.695 28.347L169.823 96.3349L168.433 96.7607C167.701 96.9938 124.249 110.187 71.9109 126.085L-23.2774 155.004L-23.9228 154.4C-24.2553 154.088 -24.4937 153.755 -24.4386 153.696C-24.3836 153.637 18.7665 140.493 71.4429 124.507Z" fill="white"/>
<path d="M9.76546 29.9121C8.98406 32.1577 -2.11969 80.3143 -2.05253 81.2226C-1.97197 82.5479 -1.26542 83.2831 0.0267815 83.3538C0.540238 83.3936 36.5947 72.5724 83.0335 58.4643C128.175 44.722 165.522 33.3834 166.028 33.1958C166.534 33.0082 167.111 32.6664 167.35 32.4118C167.753 31.981 179.763 -18.672 179.746 -19.7907C179.756 -20.0755 179.433 -20.6718 179.058 -21.1335C178.505 -21.798 178.216 -21.9591 177.456 -21.9717C176.394 -21.9742 11.4894 28.0713 10.6177 28.6885C10.3022 28.9077 9.92077 29.4326 9.76546 29.9121ZM93.2804 8.43923C136.751 -4.77307 172.708 -15.6858 173.159 -15.8147L173.968 -16.0124L168.782 6.18507C165.932 18.4022 163.432 28.5588 163.192 28.7755C162.99 28.9909 132.411 38.3963 95.2326 49.6723C58.0547 60.9483 22.2863 71.8169 15.7493 73.8182C9.19273 75.8013 3.80004 77.404 3.72302 77.3686C3.60567 77.2587 13.8814 32.8479 14.0819 32.5946C14.1553 32.5163 49.7721 21.6528 93.2804 8.43923Z" fill="white"/>
<path d="M39.6254 98.9726C37.4057 108.399 35.6323 116.369 35.642 116.672C35.6518 116.975 35.917 117.554 36.2532 117.98C36.7287 118.609 37.0172 118.732 37.9475 118.758C39.4267 118.746 104.913 98.8047 105.744 98.1129C106.262 97.6783 107.09 94.5206 110.345 80.7344C112.75 70.562 114.282 63.3591 114.256 62.5632C114.183 61.4654 114.061 61.2038 113.461 60.8255C113.035 60.5741 112.327 60.3891 111.873 60.4042C111.437 60.4377 96.1238 64.9895 77.9015 70.5299C53.6118 77.9232 44.5795 80.7856 44.176 81.2164C43.7726 81.6472 42.475 86.7176 39.6254 98.9726ZM78.8339 75.3362C95.1782 70.3896 108.54 66.4721 108.544 66.6237C108.553 67.4771 102.111 94.2694 101.851 94.4299C101.386 94.7299 41.6083 112.85 41.4909 112.74C41.4506 112.665 42.8595 106.339 44.6622 98.6907C47.5143 86.5115 48.0071 84.7308 48.5328 84.5615C48.8519 84.456 62.5091 80.301 78.8339 75.3362Z" fill="white"/>
</g>
</g>
<defs>
<clipPath id="clip0">
<rect width="1400" height="500" fill="white"/>
</clipPath>
<clipPath id="clip1">
<rect width="253.218" height="253.218" fill="white" transform="translate(919 -3)"/>
</clipPath>
<clipPath id="clip2">
<rect width="253.218" height="253.218" fill="white" transform="translate(16.9277 266.765) rotate(26.5448)"/>
</clipPath>
<clipPath id="clip3">
<rect width="330" height="343" fill="white" transform="translate(545 207)"/>
</clipPath>
<clipPath id="clip4">
<rect width="330" height="343" fill="white" transform="translate(-198.964 3.69908) rotate(-46.8768)"/>
</clipPath>
</defs>
</svg>
