<svg width="1400" height="500" viewBox="0 0 1400 500" fill="none" xmlns="http://www.w3.org/2000/svg">
<g clip-path="url(#clip0)">
<rect width="1400" height="500" fill="#0D68E0"/>
<g clip-path="url(#clip1)">
<path d="M1313.35 27.8842C1313.73 29.8643 1313.93 31.909 1313.93 34C1313.93 36.0911 1313.73 38.1355 1313.35 40.1156H1322.77V27.8842H1313.35Z" fill="#0D68E0"/>
<path d="M1290.03 20.8656C1285.35 20.8656 1281.67 24.7639 1281.67 24.7639C1281.67 24.7639 1278.21 20.8656 1273.31 20.8656C1268.55 20.8656 1264.67 25.252 1264.41 30.5632C1264.27 33.5636 1265.13 35.8467 1266.35 37.9152C1268.79 42.0472 1281.69 50.4286 1281.69 50.4286C1281.69 50.4286 1294.54 42.083 1296.99 37.9152C1298.22 35.8375 1299.08 33.5636 1298.94 30.5632C1298.68 25.252 1294.8 20.8656 1290.03 20.8656Z" fill="#0D68E0"/>
<path d="M1316.12 34C1316.12 22.2457 1310.2 11.8496 1301.19 5.63075L1298.77 -20.0175C1298.67 -21.1412 1297.72 -22 1296.6 -22H1266.75C1265.62 -22 1264.68 -21.1412 1264.58 -20.0175L1262.16 5.63075C1253.15 11.8496 1247.23 22.2457 1247.23 34C1247.23 45.7543 1253.15 56.1504 1262.16 62.3692L1264.58 88.0175C1264.68 89.1412 1265.62 90 1266.75 90H1296.6C1297.72 90 1298.67 89.1412 1298.77 88.0175L1301.19 62.3692C1310.2 56.1504 1316.12 45.7543 1316.12 34ZM1268.74 -17.625H1294.6L1296.54 2.92984C1292.04 0.766844 1287 -0.446344 1281.67 -0.446344C1276.35 -0.446344 1271.31 0.766624 1266.81 2.92984L1268.74 -17.625ZM1294.6 85.625H1268.74L1266.81 65.0702C1271.31 67.2332 1276.35 68.4463 1281.67 68.4463C1286.99 68.4463 1292.04 67.2334 1296.54 65.0702L1294.6 85.625ZM1281.67 64.0711C1265.09 64.0711 1251.6 50.5813 1251.6 34C1251.6 17.4188 1265.09 3.92887 1281.67 3.92887C1298.26 3.92887 1311.75 17.4188 1311.75 34C1311.75 50.5813 1298.26 64.0711 1281.67 64.0711Z" fill="white"/>
</g>
<g clip-path="url(#clip2)">
<path d="M94.5318 436.667C93.9641 436.925 93.2977 436.966 92.6676 436.733L76.5427 430.683C75.9409 430.453 75.4499 429.997 75.1819 429.407L67.1222 411.667C66.5661 410.443 67.1082 408.998 68.3323 408.442C69.5564 407.886 71.0011 408.428 71.5573 409.652L79.1999 426.474L94.383 432.171C95.6408 432.643 96.2795 434.049 95.8076 435.306C95.5684 435.934 95.0995 436.409 94.5318 436.667Z" fill="white"/>
<path d="M93.5188 463.88C73.9559 472.767 50.807 464.082 41.9192 444.519C33.0314 424.956 41.7172 401.807 61.2801 392.919C80.843 384.031 103.992 392.717 112.88 412.28C121.768 431.843 113.082 454.992 93.5188 463.88ZM63.295 397.354C46.1802 405.13 38.5786 425.389 46.3542 442.504C54.1298 459.619 74.3891 467.22 91.5039 459.445C108.619 451.669 116.22 431.41 108.445 414.295C100.669 397.18 80.4098 389.579 63.295 397.354Z" fill="white"/>
<path d="M118.121 474.104L85.0358 489.135C82.0377 490.498 78.4676 489.658 76.3435 487.103L53.7916 459.275C53.6646 459.113 53.5514 458.934 53.4668 458.748C52.9107 457.524 53.4427 456.057 54.6668 455.501C55.7755 454.997 57.0562 455.378 57.6999 456.359L80.1079 484.012C80.8047 484.851 82.0363 485.148 83.0209 484.7L116.111 469.667C117.095 469.22 117.682 468.097 117.501 466.992L111.394 431.821C111.171 430.729 111.713 429.579 112.764 429.101C113.988 428.545 115.422 429.065 115.979 430.289C116.063 430.475 116.143 430.722 116.182 430.924L122.303 466.185C122.84 469.499 121.119 472.742 118.121 474.104Z" fill="white"/>
<path d="M100.132 401.298C99.0234 401.802 97.7426 401.42 97.099 400.439L74.691 372.787C73.9941 371.948 72.7626 371.651 71.778 372.098L38.6927 387.13C37.7081 387.577 37.1213 388.7 37.2981 389.807L43.4097 424.976C43.6308 426.063 43.0888 427.214 42.0332 427.693C40.8091 428.249 39.3744 427.729 38.8183 426.505L38.7982 426.461C38.7135 426.275 38.6535 426.072 38.6152 425.87L32.494 390.609C31.9588 387.3 33.6797 384.057 36.6777 382.695L69.7675 367.661C72.7656 366.299 76.3357 367.138 78.4599 369.694L101.012 397.522C101.139 397.684 101.252 397.862 101.337 398.049C101.89 399.279 101.356 400.742 100.132 401.298Z" fill="white"/>
<ellipse cx="82.3104" cy="422.565" rx="23.855" ry="19.9866" fill="#0D68E0"/>
</g>
<g clip-path="url(#clip3)">
<path d="M1146.9 -23.5186L984.083 -99.8309C971.236 -105.852 955.937 -100.321 949.917 -87.4749L849.07 127.689C843.05 140.535 848.586 155.831 861.433 161.853L1024.25 238.165C1037.1 244.185 1052.39 238.655 1058.42 225.808L1159.26 10.6434C1165.28 -2.20228 1159.75 -17.4985 1146.9 -23.5186ZM948.829 187.233C943.326 184.654 940.939 178.086 943.526 172.566C946.109 167.055 952.689 164.679 958.191 167.258C963.703 169.841 966.086 176.418 963.503 181.929C960.916 187.45 954.34 189.817 948.829 187.233ZM1049.6 191.652C1048.29 194.455 1044.95 195.658 1042.15 194.345L883.659 120.061C880.857 118.747 879.647 115.411 880.96 112.609L969.49 -76.2764C970.804 -79.079 974.141 -80.283 976.943 -78.9697L1135.44 -4.68525C1138.24 -3.37255 1139.45 -0.0362032 1138.13 2.76634L1049.6 191.652Z" fill="white"/>
</g>
<path d="M1282.33 274.211C1274.07 278.23 1267.12 281.749 1265.93 282.477C1263 284.338 1260.93 286.127 1259.15 288.362C1256.29 291.913 1254.97 295.631 1254.96 300.086C1254.95 304.992 1255.68 307.123 1261.31 319.07C1264.81 326.515 1265.47 328.037 1265.37 328.53C1265.18 329.426 1271.8 343.385 1272.61 343.808C1273.39 344.219 1277.18 352.221 1277 353.084C1276.81 353.98 1283.4 367.894 1284.25 368.385C1284.74 368.654 1288.87 377.272 1318.13 438.875L1351.44 509.082L1352.88 510.767C1357.08 515.707 1362.48 518.107 1368.8 517.838C1369.76 517.803 1371.76 517.553 1373.24 517.27C1374.73 517.009 1375.75 516.885 1375.5 517.004C1375.17 517.188 1375.18 517.267 1375.49 517.374C1375.82 517.494 1384.17 513.623 1415.62 498.727C1437.46 488.384 1455.57 479.693 1455.89 479.43C1456.27 479.112 1456.37 478.9 1456.13 478.873C1455.93 478.857 1456.61 478.174 1457.66 477.342C1464.51 471.784 1467.1 465.494 1465.74 457.453L1465.4 455.387L1431.65 383.943C1401.9 321.014 1397.9 312.444 1398.07 312.054C1398.38 311.408 1391.35 296.561 1390.64 296.366C1390.26 296.268 1388.74 293.231 1379.89 274.655L1369.57 253.044L1367.93 251.174C1365.88 248.779 1364.29 247.417 1362.17 246.246C1357.14 243.426 1351.07 243.127 1344.32 245.378C1343.19 245.748 1334.23 249.741 1324.45 254.233C1305.25 263.047 1303.86 263.704 1282.33 274.211ZM1413.33 356.601L1457.64 450.157L1404.92 475.127L1352.19 500.097L1307.88 406.71C1272.51 332.138 1263.61 313.246 1263.77 312.979C1263.88 312.813 1287.62 301.487 1316.5 287.863L1369.02 263.046L1413.33 356.601Z" fill="white"/>
<path d="M757.207 249.151C756.59 249.312 751.6 252.152 749.91 253.278C748.059 254.537 747.817 255.395 747.012 263.434C746.341 270.24 742.639 306.603 740.976 322.789C740.546 327.049 739.044 341.841 737.622 355.615C736.227 369.388 734.617 385.225 734.054 390.799C733.463 396.373 732.9 401.036 732.766 401.143C732.632 401.277 706.151 416.605 673.902 435.202C641.654 453.799 614.985 469.26 614.637 469.582C613.161 470.922 613 471.806 613 478.345C613 484.883 613.188 485.794 614.637 487.08C615.28 487.643 792.702 590.061 795.278 591.374C797.88 592.687 792.676 595.474 862.432 555.225C897.229 535.181 926.017 518.46 926.419 518.084C926.822 517.709 927.332 517.012 927.546 516.557C927.815 515.967 930.176 492.306 935.515 436.327L943.08 356.901L942.571 355.695C942.302 355.025 941.632 354.141 941.122 353.712C940.237 353.016 763.378 250.893 760.802 249.58C759.622 248.99 758.415 248.856 757.207 249.151ZM759.005 263.782C760.078 264.425 798.873 286.827 845.207 313.544C891.541 340.26 929.478 362.153 929.505 362.153C929.532 362.18 928.593 371.532 927.439 382.948C926.259 394.363 924.756 409.128 924.085 415.774C923.415 422.393 922.637 430.11 922.341 432.924C922.046 435.711 920.678 449.297 919.256 463.07C917.861 476.844 916.359 491.529 915.929 495.709C915.527 499.862 915.124 503.346 915.044 503.4C914.937 503.507 743.229 404.573 742.746 404.117C742.612 403.983 742.88 400.312 743.363 395.623C744.517 384.18 748.568 344.548 749.695 333.507C750.205 328.496 751.654 314.267 752.915 301.887C754.176 289.507 755.571 275.894 756 271.607C756.456 267.346 756.805 263.568 756.805 263.246C756.805 262.898 756.859 262.63 756.912 262.63C756.966 262.63 757.905 263.139 759.005 263.782ZM753.263 415.935C760.454 420.088 779.127 430.861 794.768 439.891C810.41 448.922 839.573 465.75 859.561 477.273C879.549 488.795 899.563 500.345 904.044 502.944C908.498 505.517 912.12 507.687 912.039 507.741C911.959 507.821 886.149 522.747 854.678 540.888L797.451 573.902L793.159 571.437C790.798 570.07 752.163 547.802 707.305 521.916C662.473 496.031 625.637 474.807 625.476 474.754C625.315 474.673 625.368 474.513 625.61 474.352C626.656 473.655 739.795 408.405 739.983 408.405C740.09 408.405 746.073 411.808 753.263 415.935ZM709.666 528.91C784.68 572.187 796.512 578.94 797.451 578.967C798.39 578.967 805.554 574.894 858.327 544.452C891.22 525.453 918.29 509.858 918.451 509.804C918.693 509.697 918.719 509.965 918.612 510.662L918.451 511.653L857.951 546.569L797.478 581.459L796.217 580.735C795.546 580.36 756.215 557.663 708.834 530.331L622.659 480.622V479.738C622.659 479.282 622.739 478.881 622.82 478.881C622.9 478.881 661.99 501.39 709.666 528.91Z" fill="white"/>
<path d="M736.549 419.231C734.376 420.195 691.637 445.009 691.02 445.679C690.107 446.644 690.054 447.662 690.885 448.654C691.207 449.056 723.751 467.974 765.793 492.225C806.68 515.78 840.485 535.288 840.968 535.529C841.451 535.77 842.095 535.958 842.444 535.958C843.034 535.958 888.215 510.099 889.02 509.322C889.234 509.134 889.449 508.491 889.529 507.902C889.637 507.044 889.556 506.722 889.046 506.16C888.322 505.383 739.071 419.231 738.024 419.016C737.649 418.936 737.005 419.016 736.549 419.231ZM809.31 465.509C848.668 488.206 881.212 506.99 881.615 507.232L882.312 507.687L862.566 519.076C851.7 525.346 842.578 530.465 842.256 530.438C841.961 530.438 814.193 514.547 780.549 495.119C746.905 475.692 714.522 457.014 708.593 453.611C702.663 450.181 697.807 447.341 697.78 447.26C697.78 447.099 737.22 424.242 737.541 424.215C737.649 424.215 769.924 442.785 809.31 465.509Z" fill="white"/>
<path d="M706.554 488.233C698.156 493.056 691.127 497.21 690.912 497.424C690.698 497.638 690.456 498.228 690.376 498.764C690.242 499.541 690.349 499.836 690.966 500.532C691.985 501.604 751.305 535.77 752.378 535.904C753.049 535.985 755.92 534.43 768.207 527.383C777.276 522.184 783.581 518.379 784.144 517.816C784.895 517.013 785.002 516.745 784.868 516.048C784.761 515.565 784.412 514.922 784.09 514.601C783.768 514.306 769.978 506.24 753.478 496.727C731.478 484.052 723.215 479.416 722.624 479.416C722.034 479.416 717.446 481.935 706.554 488.233ZM750.607 500.693C765.39 509.241 777.383 516.316 777.276 516.423C776.659 517.013 752.7 530.625 752.405 530.545C751.868 530.411 697.781 499.166 697.781 499.005C697.807 498.925 703.388 495.629 710.202 491.716C721.042 485.473 722.678 484.615 723.161 484.883C723.456 485.044 735.824 492.172 750.607 500.693Z" fill="white"/>
<g clip-path="url(#clip4)">
<path d="M329.797 193.955C331.065 192.496 332.32 189.848 332.553 188.14C332.673 187.352 332.681 185.844 332.586 184.806L332.411 182.927L320.902 163.074L309.367 143.236L310.057 143.071C310.408 142.968 312.173 142.654 313.979 142.349C318.153 141.65 320.532 140.396 322.153 138.081C324.865 134.239 324.639 129.759 321.594 126.072C319.627 123.703 317.395 122.343 313.355 121.05C307.247 119.087 299.111 117.456 295.274 117.445L294.282 117.444L290.693 111.308L287.104 105.172L288.042 103.735C288.573 102.946 289.833 100.364 290.817 98.0115C292.785 93.3067 294.603 89.7489 297.245 85.436C299.923 81.0677 300.276 78.5719 298.623 75.7458C297.565 73.9381 296.139 72.9613 293.872 72.4763C290.584 71.7679 286.867 72.3704 283.86 74.1292C281.694 75.3961 278.173 78.2069 275.812 80.5445C274.855 81.4804 274.021 82.2759 273.944 82.3206C273.868 82.3654 273.359 81.6717 272.823 80.7551C271.93 79.2275 271.891 79.0449 272.29 78.2649C274.407 74.2246 276.327 67.5661 276.047 65.0989C275.938 64.0351 274.489 60.6798 269.27 49.2436C261.741 32.8034 259.73 28.5465 259.016 27.7342C258.286 26.8965 256.017 26.1738 254.532 26.3247C252.205 26.5577 250.902 27.6619 250.529 29.6566L250.345 30.6868L249.307 28.5605C246.909 23.6417 244.661 18.3955 241.855 11.0839C240.052 6.36369 238.618 3.03392 238.243 2.56942C237.399 1.59384 234.945 1.08161 233.32 1.51948C231.644 1.98716 230.808 2.95472 229.718 5.71078C228.882 7.90793 228.785 8.03338 228.262 7.72413C226.668 6.81131 223.854 6.26991 221.524 6.43705L219.061 6.61288L212.85 10.1435L206.648 13.6338L203.059 11.9405C192.708 6.99144 182.712 4.63696 171.193 4.47221C166.612 4.41773 159.282 4.80924 147.77 5.76789C134.955 6.83898 127.31 6.04811 117.433 2.66773C111.735 0.703708 97.7452 -9.53179 90.0504 -17.3667C83.7014 -23.8361 62.0442 -47.7657 54.8332 -56.2937C54.0741 -57.1823 53.2937 -57.9902 53.1024 -58.0834C52.8814 -58.2275 40.6958 -51.1687 11.4807 -34.0471L-29.8349 -9.77973L-20.8038 -4.98157C0.412488 6.32365 11.0804 12.283 23.7828 20.0252C32.0067 25.0222 46.342 34.2696 48.9313 36.2406C55.6658 41.3227 74.7005 53.0496 86.5287 59.3555C90.3524 61.3904 95.1672 64.8275 97.4338 67.1239C99.8003 69.5326 100.547 70.6337 105.78 79.874C107.855 83.4789 109.816 86.7738 110.201 87.198C110.56 87.637 113.821 92.803 117.408 98.7012C123.583 108.792 124.051 109.475 125.569 110.842C127.663 112.727 129.206 113.669 132.18 114.835C137.148 116.781 142.201 120.625 147.058 126.122C149.586 128.983 150.069 129.692 155.294 138.391C162.495 150.41 165.572 156.606 169.293 166.594C171.944 173.758 174.718 184.231 174.745 187.085C174.75 190.602 175.889 193.661 177.662 194.879C179.531 196.144 181.757 195.798 185.284 193.701C190.861 190.371 196.347 183.028 197.28 177.664L197.557 176.033L215.799 207.222C227.534 227.285 234.382 238.759 234.977 239.367C237.408 241.944 241.314 243.418 244.891 243.102L246.771 242.925L287.83 218.979C324.633 197.522 329.001 194.933 329.797 193.955ZM214.235 194.606L194.503 160.87L193.33 156.875C189.83 144.81 184.002 130.109 177.822 117.731L175.646 113.366L174.063 105.749C173.155 101.564 172.325 97.1634 172.207 95.968C171.931 93.1567 169.543 82.1153 168.009 76.4518C167.068 72.9705 165.411 67.8572 165.039 67.2207C165.009 67.1697 180.794 57.9031 200.1 46.6454L235.261 26.1826L279.238 101.196L323.174 176.199L278.578 202.282L233.981 228.366L214.235 194.606Z" fill="white"/>
</g>
</g>
<defs>
<clipPath id="clip0">
<rect width="1400" height="500" fill="white"/>
</clipPath>
<clipPath id="clip1">
<rect width="112" height="112" fill="white" transform="translate(1229 -22)"/>
</clipPath>
<clipPath id="clip2">
<rect width="116.911" height="116.911" fill="white" transform="translate(0 399.358) rotate(-24.4332)"/>
</clipPath>
<clipPath id="clip3">
<rect width="289" height="289" fill="white" transform="translate(934.65 -123) rotate(25.1123)"/>
</clipPath>
<clipPath id="clip4">
<rect width="262.752" height="377.546" fill="white" transform="translate(381.418 186.896) rotate(149.677)"/>
</clipPath>
</defs>
</svg>
