<svg width="1400" height="500" viewBox="0 0 1400 500" fill="none" xmlns="http://www.w3.org/2000/svg">
<g clip-path="url(#clip0)">
<rect width="1400" height="500" fill="#0D68E0"/>
<g clip-path="url(#clip1)">
<path d="M1113.1 279.068C1111.64 280.337 1110.03 282.785 1109.56 284.444C1109.34 285.208 1109.12 286.7 1109.07 287.741L1108.98 289.627L1117.62 310.885L1126.29 332.132L1125.59 332.199C1125.23 332.252 1123.43 332.319 1121.6 332.37C1117.37 332.482 1114.84 333.395 1112.92 335.462C1109.7 338.89 1109.3 343.359 1111.8 347.432C1113.42 350.051 1115.44 351.708 1119.27 353.549C1125.04 356.341 1132.87 359.086 1136.67 359.629L1137.65 359.768L1140.36 366.342L1143.06 372.917L1141.93 374.21C1141.3 374.917 1139.69 377.3 1138.39 379.493C1135.79 383.879 1133.49 387.15 1130.28 391.055C1127.02 395.009 1126.32 397.432 1127.57 400.46C1128.36 402.397 1129.64 403.562 1131.82 404.357C1134.98 405.515 1138.74 405.434 1141.96 404.11C1144.28 403.155 1148.16 400.86 1150.82 398.873C1151.9 398.079 1152.84 397.407 1152.92 397.374C1153 397.34 1153.41 398.097 1153.81 399.079C1154.49 400.716 1154.5 400.902 1153.99 401.62C1151.34 405.327 1148.51 411.655 1148.45 414.137C1148.41 415.205 1149.38 418.729 1152.96 430.779C1158.13 448.105 1159.53 452.6 1160.13 453.504C1160.73 454.434 1162.88 455.465 1164.37 455.522C1166.71 455.614 1168.15 454.701 1168.8 452.778L1169.12 451.783L1169.86 454.033C1171.55 459.237 1173.05 464.744 1174.81 472.374C1175.94 477.299 1176.9 480.796 1177.21 481.308C1177.91 482.391 1180.27 483.239 1181.94 483.031C1183.66 482.8 1184.62 481.958 1186.09 479.38C1187.22 477.32 1187.33 477.209 1187.81 477.588C1189.26 478.713 1191.97 479.64 1194.3 479.798L1196.76 479.966L1203.41 477.331L1210.03 474.735L1213.35 476.91C1222.92 483.248 1232.49 486.967 1243.87 488.729C1248.4 489.419 1255.71 490.048 1267.25 490.697C1280.09 491.414 1287.55 493.259 1296.86 497.977C1302.23 500.713 1314.67 512.791 1321.2 521.618C1326.59 528.906 1344.72 555.61 1350.67 565.056C1351.3 566.041 1351.96 566.95 1352.14 567.068C1352.34 567.242 1365.38 561.942 1396.69 549.041L1440.98 530.743L1432.7 524.737C1413.26 510.597 1403.52 503.215 1392.01 493.785C1384.56 487.695 1371.65 476.547 1369.36 474.236C1363.4 468.269 1346.17 454.013 1335.33 446.127C1331.83 443.581 1327.54 439.509 1325.61 436.92C1323.6 434.206 1323.02 433.012 1319.12 423.135C1317.56 419.277 1316.08 415.742 1315.76 415.269C1315.46 414.784 1312.95 409.215 1310.21 402.876C1305.5 392.027 1305.13 391.285 1303.82 389.72C1302.01 387.563 1300.61 386.416 1297.83 384.849C1293.17 382.232 1288.7 377.723 1284.66 371.605C1282.55 368.421 1282.17 367.653 1278.2 358.313C1272.74 345.411 1270.55 338.847 1268.25 328.439C1266.62 320.978 1265.33 310.22 1265.7 307.39C1266.18 303.906 1265.48 300.72 1263.89 299.267C1262.22 297.755 1259.96 297.788 1256.18 299.375C1250.19 301.899 1243.74 308.41 1242.07 313.593L1241.57 315.17L1227.84 281.751C1219 260.253 1213.81 247.94 1213.31 247.255C1211.26 244.366 1207.59 242.364 1204.01 242.18L1202.12 242.094L1158.13 260.11C1118.71 276.252 1114.02 278.21 1113.1 279.068ZM1227.63 294.462L1242.49 330.609L1243.1 334.728C1244.89 347.163 1248.62 362.531 1253.03 375.646L1254.58 380.271L1255.09 388.034C1255.4 392.304 1255.62 396.778 1255.57 397.978C1255.45 400.8 1256.28 412.066 1257.01 417.888C1257.46 421.466 1258.4 426.76 1258.68 427.442C1258.7 427.496 1241.78 434.483 1221.1 442.952L1183.44 458.337L1150.3 377.946L1117.19 297.572L1164.98 277.93L1212.77 258.287L1227.63 294.462Z" fill="white"/>
</g>
<g clip-path="url(#clip2)">
<path d="M1055.91 -16.8587C1052.15 -17.7018 1048.95 -17.3214 1045.29 -15.6313C1043.15 -14.6498 1042.4 -14.1609 1041.05 -12.8474C1040.12 -11.9958 1038.92 -10.6001 1038.38 -9.77347C1037.45 -8.32823 1036.04 -4.51388 1001.46 90.6363C967.217 184.863 965.513 189.616 965.358 191.153C965.278 192.027 965.294 193.816 965.443 195.106C965.651 197.084 965.858 197.825 966.908 200.037C967.924 202.213 968.378 202.925 969.761 204.354C972.917 207.641 968.043 205.68 1020.37 224.699C1072.71 243.718 1067.71 242.093 1072.24 241.6C1074.22 241.391 1075.02 241.137 1077.2 240.121C1079.42 239.1 1080.06 238.664 1081.49 237.282C1082.43 236.388 1083.59 235.027 1084.09 234.305C1084.96 233.028 1086.71 228.29 1120.99 133.959C1155.27 39.6273 1156.98 34.8737 1157.13 33.3369C1157.22 32.4416 1157.2 30.6739 1157.05 29.3835C1156.84 27.4059 1156.63 26.6652 1155.58 24.4529C1154.2 21.5038 1152.62 19.5741 1150.1 17.7534L1148.63 16.6961L1102.96 0.0751106C1077.85 -9.07398 1056.69 -16.6966 1055.91 -16.8587ZM1106.97 18.3622C1107.21 18.8776 1106.56 20.4507 1106.03 20.6837C1105.63 20.8708 1104.42 20.4778 1095.74 17.3257C1087.07 14.1736 1085.89 13.6966 1085.7 13.2957C1085.44 12.7727 1085.96 11.1538 1086.47 10.9132C1086.96 10.686 1106.74 17.8755 1106.97 18.3622ZM1110.38 130.104L1081.31 210.114L1032.17 192.254L983.027 174.395L1012.11 94.3856L1041.18 14.3762L1090.32 32.2356L1139.46 50.0949L1110.38 130.104ZM1031.11 199.739C1034.99 201.886 1037.03 206.288 1036.21 210.698C1035.27 215.705 1030.39 219.327 1025.23 218.857C1019.26 218.279 1015.1 212.725 1016.18 206.746C1017.14 201.414 1022.64 197.611 1027.96 198.595C1029.65 198.923 1029.67 198.93 1031.11 199.739Z" fill="white"/>
</g>
<g clip-path="url(#clip3)">
<path d="M64.007 -118.809C55.7555 -114.79 48.7969 -111.272 47.6117 -110.543C44.6814 -108.682 42.6076 -106.893 40.828 -104.658C37.9745 -101.108 36.6473 -97.3894 36.6431 -92.9338C36.6293 -88.0283 37.3604 -85.8973 42.9908 -73.9505C46.4892 -66.5053 47.1544 -64.9833 47.054 -64.4904C46.8663 -63.5943 53.4778 -49.6348 54.29 -49.2123C55.0688 -48.8017 58.8591 -40.7989 58.6833 -39.9363C58.4956 -39.0402 65.0856 -25.1263 65.9301 -24.6355C66.4194 -24.3662 70.5566 -15.7484 99.8165 45.8545L133.124 116.062L134.562 117.747C138.766 122.687 144.159 125.087 150.487 124.818C151.444 124.782 153.44 124.533 154.919 124.25C156.41 123.989 157.436 123.865 157.186 123.983C156.856 124.167 156.866 124.246 157.167 124.354C157.502 124.474 165.851 120.603 197.303 105.707C219.141 95.3636 237.255 86.673 237.576 86.4099C237.954 86.0917 238.048 85.88 237.813 85.8524C237.611 85.8368 238.289 85.1538 239.341 84.3213C246.197 78.764 248.782 72.4736 247.422 64.4331L247.083 62.3667L213.33 -9.07683C183.58 -72.0067 179.577 -80.5766 179.754 -80.9667C180.06 -81.6127 173.029 -96.4588 172.324 -96.6539C171.944 -96.7521 170.422 -99.7891 161.568 -118.365L151.249 -139.977L149.613 -141.846C147.56 -144.242 145.969 -145.604 143.856 -146.774C138.82 -149.594 132.752 -149.893 126.001 -147.642C124.868 -147.273 115.908 -143.28 106.128 -138.787C86.9316 -129.973 85.5454 -129.317 64.007 -118.809ZM195.01 -36.4189L239.32 57.1364L186.598 82.1066L133.876 107.077L89.563 13.6901C54.1881 -60.8826 45.2962 -79.7744 45.4481 -80.0411C45.5641 -80.2074 69.302 -91.5337 98.1842 -105.157L150.7 -129.974L195.01 -36.4189Z" fill="white"/>
</g>
<path d="M797.325 327.211C789.074 331.23 782.115 334.749 780.93 335.477C778 337.338 775.926 339.127 774.146 341.362C771.293 344.913 769.965 348.631 769.961 353.086C769.947 357.992 770.679 360.123 776.309 372.07C779.807 379.515 780.473 381.037 780.372 381.53C780.184 382.426 786.796 396.385 787.608 396.808C788.387 397.219 792.177 405.221 792.001 406.084C791.814 406.98 798.404 420.894 799.248 421.385C799.738 421.654 803.875 430.272 833.135 491.875L866.442 562.082L867.88 563.767C872.084 568.707 877.477 571.107 883.805 570.838C884.762 570.803 886.758 570.553 888.238 570.27C889.728 570.009 890.754 569.885 890.504 570.004C890.174 570.188 890.184 570.267 890.485 570.374C890.82 570.494 899.17 566.623 930.621 551.727C952.46 541.384 970.574 532.693 970.894 532.43C971.272 532.112 971.367 531.9 971.131 531.873C970.929 531.857 971.607 531.174 972.659 530.342C979.515 524.784 982.1 518.494 980.74 510.453L980.402 508.387L946.648 436.943C916.898 374.014 912.895 365.444 913.072 365.054C913.378 364.408 906.347 349.561 905.642 349.366C905.262 349.268 903.74 346.231 894.887 327.655L884.567 306.044L882.931 304.174C880.878 301.779 879.287 300.417 877.175 299.246C872.139 296.426 866.071 296.127 859.319 298.378C858.186 298.748 849.226 302.741 839.446 307.233C820.25 316.047 818.864 316.704 797.325 327.211ZM928.328 409.601L972.638 503.157L919.916 528.127L867.195 553.097L822.881 459.71C787.506 385.138 778.614 366.246 778.766 365.979C778.882 365.813 802.62 354.487 831.502 340.863L884.018 316.046L928.328 409.601Z" fill="white"/>
<g clip-path="url(#clip4)">
<path d="M50.9119 300.141C47.1531 299.298 43.948 299.679 40.2907 301.369C38.151 302.35 37.4027 302.839 36.0457 304.153C35.1181 305.004 33.9214 306.4 33.3832 307.227C32.4538 308.672 31.0438 312.486 -3.53771 407.636C-37.7834 501.863 -39.4872 506.616 -39.6416 508.153C-39.7216 509.027 -39.706 510.816 -39.5569 512.106C-39.3485 514.084 -39.1422 514.825 -38.0919 517.037C-37.076 519.213 -36.6215 519.925 -35.2392 521.354C-32.0831 524.641 -36.957 522.68 15.3746 541.699C67.7061 560.718 62.7101 559.093 67.24 558.6C69.2176 558.391 70.0232 558.137 72.1992 557.121C74.4248 556.1 75.0585 555.664 76.4881 554.282C77.431 553.388 78.5914 552.027 79.0914 551.305C79.9598 550.028 81.7056 545.29 115.989 450.959C150.273 356.627 151.977 351.874 152.132 350.337C152.219 349.442 152.196 347.674 152.047 346.384C151.838 344.406 151.632 343.665 150.582 341.453C149.205 338.504 147.624 336.574 145.1 334.753L143.63 333.696L97.963 317.075C72.8548 307.926 51.6851 300.303 50.9119 300.141ZM101.967 335.362C102.208 335.878 101.565 337.451 101.028 337.684C100.628 337.871 99.4154 337.478 90.7425 334.326C82.0695 331.174 80.8878 330.697 80.7007 330.296C80.4391 329.773 80.9561 328.154 81.4715 327.913C81.9582 327.686 101.74 334.875 101.967 335.362ZM105.385 447.104L76.3059 527.114L27.1663 509.254L-21.9733 491.395L7.10536 411.386L36.184 331.376L85.3236 349.236L134.463 367.095L105.385 447.104ZM26.11 516.739C29.9894 518.886 32.027 523.288 31.2088 527.698C30.2686 532.705 25.3861 536.327 20.2318 535.857C14.2605 535.279 10.098 529.725 11.1775 523.746C12.1406 518.414 17.6358 514.611 22.9601 515.595C24.6476 515.923 24.6686 515.93 26.11 516.739Z" fill="white"/>
</g>
</g>
<defs>
<clipPath id="clip0">
<rect width="1400" height="500" fill="white"/>
</clipPath>
<clipPath id="clip1">
<rect width="262.752" height="377.546" fill="white" transform="translate(1061 278.894) rotate(-22.3451)"/>
</clipPath>
<clipPath id="clip2">
<rect width="286" height="286" fill="white" transform="translate(975.692 -71) rotate(19.9732)"/>
</clipPath>
<clipPath id="clip3">
<rect width="217" height="322" fill="white" transform="translate(-26 -112.115) rotate(-25.3432)"/>
</clipPath>
<clipPath id="clip4">
<rect width="286" height="286" fill="white" transform="translate(-29.3079 246) rotate(19.9732)"/>
</clipPath>
</defs>
</svg>
