<svg width="60" height="60" viewBox="0 0 60 60" fill="none" xmlns="http://www.w3.org/2000/svg">
<rect width="60" height="60" rx="13" fill="#0D68E0"/>
<path d="M40.4352 34.55V25.317H42.5737V32.674H46.3187V34.5465H40.4352V34.55ZM23.3132 28.796L28.5282 24.785C29.02 25.184 29.5082 25.5865 30 25.9872L25.0527 29.7322L26.122 30.6685L31.0693 26.7905C31.561 27.1895 32.0492 27.592 32.541 27.9945C30.8998 29.2972 29.2507 30.5899 27.5938 31.8725L28.6612 32.8105L33.6137 28.7942L33.612 25.3187H35.7522V32.6757H39.6302V34.5482H33.7467V31.071C32.0055 32.4062 30.2695 33.7467 28.53 35.082L23.3132 31.071C23.0612 32.3468 22.1705 33.451 21.0172 34.0355C20.5185 34.2927 19.9725 34.4555 19.416 34.5185C19.0957 34.557 18.7737 34.5482 18.4517 34.5482H15.153V25.3187H18.9575C19.9526 25.3288 20.9156 25.672 21.6927 26.2935C22.4872 26.9235 23.0542 27.8195 23.315 28.796H23.3132ZM17.162 27.1912V32.8087L18.8298 32.807C19.1804 32.7956 19.5242 32.7078 19.8374 32.5497C20.1505 32.3916 20.4254 32.1671 20.6427 31.8917C21.0101 31.4307 21.2358 30.8729 21.2923 30.2861C21.3489 29.6993 21.2339 29.1087 20.9613 28.586C20.7892 28.2532 20.5477 27.9613 20.253 27.7301C19.9583 27.4988 19.6174 27.3335 19.2533 27.2455C18.9628 27.1755 18.6617 27.193 18.366 27.1895H17.162V27.1912ZM29.685 9H30.2747C33.5731 9.04307 36.8144 9.86644 39.7335 11.4027C42.5822 12.9019 45.0516 15.0308 46.954 17.6275C49.5238 21.1281 50.9382 25.3429 51 29.685V30.315C50.9342 35.5437 48.9141 40.5585 45.337 44.3727C43.409 46.4319 41.0849 48.0804 38.5042 49.2192C35.9234 50.3581 33.1391 50.9638 30.3185 51H29.6867C27.2044 50.9625 24.7485 50.485 22.433 49.5895C19.6123 48.4916 17.0612 46.7989 14.9535 44.6265C12.6978 42.3072 11.0057 39.5002 10.008 36.4225C9.37247 34.4482 9.03279 32.3906 9 30.3167V29.685C9.06854 25.6975 10.2783 21.8132 12.486 18.492C14.5486 15.3801 17.3904 12.8629 20.7285 11.191C23.5123 9.79919 26.5731 9.05043 29.685 9V9ZM29.4172 11.1525C25.3127 11.2696 21.3599 12.7296 18.1648 15.3087C15.5515 17.4124 13.5466 20.1749 12.3565 23.3115C10.6265 27.9135 10.7476 33.0069 12.6943 37.5215C14.0363 40.6074 16.1787 43.2785 18.8997 45.2582C21.3714 47.0606 24.2471 48.2299 27.2752 48.6637C29.8232 49.0295 32.4465 48.8807 34.9333 48.2088C38.3371 47.2896 41.4144 45.4329 43.8145 42.8503C46.2164 40.2717 47.8452 37.0699 48.515 33.6102C49.0375 30.8958 48.9647 28.1003 48.3015 25.4167C47.529 22.3232 45.9842 19.4761 43.8118 17.1421C41.6394 14.8081 38.9103 13.0634 35.88 12.0712C33.7955 11.3918 31.6085 11.0809 29.4172 11.1525Z" fill="white"/>
</svg>
