<svg width="60" height="60" viewBox="0 0 60 60" fill="none" xmlns="http://www.w3.org/2000/svg">
<rect width="60" height="60" rx="13" fill="#0D68E0"/>
<path d="M29.5 45H28.9833L32.2125 36.3458H36.6042C37.3792 36.3458 38.1542 35.7 38.4125 35.0542L41.9 25.625C42.4167 24.075 41.5125 22.7833 39.9625 22.7833H33.8917L28.8542 36.7333L26.0125 44.6125C19.0375 42.9333 14 36.8625 14 29.5C14 22.3958 18.7792 16.4542 25.3667 14.5167L22.3958 22.7833L17.3583 36.3458H20.5875L24.7208 24.85H27.175L23.0417 36.3458H26.2708L30.1458 25.625C30.6625 24.075 29.8875 22.7833 28.2083 22.7833H25.625L28.8542 14H29.5C38.025 14 45 20.975 45 29.5C45 38.025 38.025 45 29.5 45ZM38.9292 24.7208H36.475L32.9875 34.15H35.4417L38.9292 24.7208Z" fill="white"/>
</svg>
