<?xml version="1.0" encoding="UTF-8"?> <svg xmlns="http://www.w3.org/2000/svg" width="98" height="33" viewBox="0 0 98 33" fill="none"> <path d="M89.8502 27.8919C84.6627 27.928 79.7529 27.9697 78.3843 27.8452C75.6144 27.6017 73.7632 25.7633 73.5492 23.0577C73.4025 21.2833 73.4025 19.8126 73.5401 18.4129C73.7922 15.7796 75.9647 13.2696 78.3852 13.1515C79.2517 13.1035 81.5726 13.109 85.7725 13.1258L98 13.1515V8.00653C98 8.00653 88.261 7.99518 85.3331 7.98172C81.4022 7.96363 79.4241 7.96111 78.1721 8.00653C75.4166 8.11252 73.1068 9.10802 71.3108 10.9581C69.6113 12.704 68.5972 15.4827 68.4467 18.296C68.3617 19.8126 68.3327 21.796 68.4467 22.9749C68.7295 25.9988 69.6938 28.373 71.3108 30.036C73.0405 31.8217 75.6728 32.9522 78.1745 32.9884C80.2272 33.0145 98 32.9884 98 32.9884V27.8447C98 27.8447 92.6006 27.867 89.8502 27.8919ZM34.6541 8.27991V13.4198H46.717V32.8971H51.8096V13.4198H63.8749V8.27991H34.6541ZM29.3655 18.0007C29.3281 15.2333 28.3671 12.8575 26.4997 10.938C24.554 8.9297 21.5825 8.09443 19.6393 7.98929C17.9494 7.89297 11.2888 7.92326 9.7245 7.98929C7.52172 8.08434 5.91555 8.75053 5.11163 9.35953C5.10334 9.365 5.09505 9.36247 5.09505 9.34986V0H0V32.9893H5.08634C5.08634 32.9893 4.98725 19.4858 5.10044 18.0159C5.30277 15.4011 7.25803 13.3483 9.74896 13.1266C11.7486 12.9529 17.7471 13.0005 19.6277 13.1308C22.2123 13.3113 24.1195 15.3603 24.27 18.1189C24.3193 19.1346 24.2671 32.9888 24.2671 32.9888H29.365C29.3655 32.9884 29.3787 19.1884 29.3655 18.0007Z" fill="#69B40F"></path> </svg> 