<svg width="60" height="60" viewBox="0 0 60 60" fill="none" xmlns="http://www.w3.org/2000/svg">
<rect width="60" height="60" rx="13" fill="#0D68E0"/>
<path d="M50.0082 34.5233C47.4674 34.5409 45.0627 34.561 44.3923 34.5007C43.0356 34.3826 42.1289 33.4913 42.0241 32.1795C41.9522 31.3192 41.9522 30.6061 42.0196 29.9275C42.1431 28.6507 43.2072 27.4338 44.3927 27.3765C44.8172 27.3532 45.9539 27.3559 48.011 27.364L54 27.3765V24.882C54 24.882 49.2299 24.8764 47.7958 24.8699C45.8705 24.8612 44.9016 24.8599 44.2883 24.882C42.9387 24.9333 41.8074 25.416 40.9277 26.313C40.0953 27.1595 39.5986 28.5068 39.5249 29.8708C39.4833 30.6061 39.4691 31.5678 39.5249 32.1393C39.6634 33.6055 40.1358 34.7566 40.9277 35.5629C41.7749 36.4287 43.0642 36.9768 44.2896 36.9944C45.295 37.007 54 36.9944 54 36.9944V34.5005C54 34.5005 51.3554 34.5113 50.0082 34.5233ZM22.9735 25.0145V27.5066H28.8818V36.9501H31.3761V27.5066H37.2857V25.0145H22.9735ZM20.3831 29.7276C20.3648 28.3858 19.8941 27.2339 18.9795 26.3033C18.0265 25.3296 16.571 24.9246 15.6193 24.8736C14.7915 24.8269 11.5292 24.8416 10.763 24.8736C9.68411 24.9197 8.89741 25.2427 8.50366 25.538C8.4996 25.5406 8.49553 25.5394 8.49553 25.5333V21H6V36.9948H8.49127C8.49127 36.9948 8.44274 30.4476 8.49817 29.735C8.59727 28.4672 9.55495 27.4719 10.775 27.3644C11.7544 27.2802 14.6924 27.3033 15.6136 27.3665C16.8795 27.454 17.8136 28.4474 17.8873 29.7849C17.9115 30.2774 17.8859 36.9946 17.8859 36.9946H20.3829C20.3831 36.9944 20.3896 30.3035 20.3831 29.7276Z" fill="white"/>
</svg>
