<svg width="60" height="60" viewBox="0 0 60 60" fill="none" xmlns="http://www.w3.org/2000/svg">
<rect width="60" height="60" rx="13" fill="#0D68E0"/>
<path d="M18.8931 22.2212C18.8931 22.2212 16.4265 24.5708 16.2932 27.0531V27.5177C16.3999 29.5221 17.9198 30.7035 17.9198 30.7035C20.3596 33.0796 26.266 36.0664 27.6526 36.7434C27.6526 36.7434 27.7326 36.7832 27.7859 36.7301L27.8126 36.677V36.6372V36.6239C24.0261 28.4071 18.8931 22.2212 18.8931 22.2212ZM26.8659 38.7611C26.8393 38.6549 26.7326 38.6549 26.7326 38.6549L16.8932 39C17.9598 40.8982 19.7597 42.3584 21.6396 41.9204C22.9195 41.5885 25.8527 39.5575 26.8126 38.8673C26.8926 38.8009 26.8659 38.7478 26.8659 38.7478V38.7611ZM26.9726 37.7257C22.6528 34.8186 14.28 30.3717 14.28 30.3717C14.08 30.9823 14.0133 31.5664 14 32.0973V32.1903C14 33.6106 14.5333 34.6062 14.5333 34.6062C15.5999 36.8496 17.6531 37.5265 17.6531 37.5265C18.5864 37.9248 19.5197 37.938 19.5197 37.938C19.6797 37.9646 25.386 37.938 26.9059 37.938C26.9726 37.938 27.0126 37.8717 27.0126 37.8717V37.792C27.0126 37.7522 26.9726 37.7257 26.9726 37.7257ZM26.0793 18.3053C25.134 18.5456 24.2911 19.0815 23.6743 19.8341C23.0576 20.5867 22.6995 21.5165 22.6528 22.4867V23.031C22.6928 23.8274 22.8662 24.4248 22.8662 24.4248C23.7461 28.2743 28.0125 34.5796 28.9325 35.9071C28.9992 35.9734 29.0658 35.9469 29.0658 35.9469C29.0914 35.9359 29.1129 35.9172 29.1273 35.8933C29.1416 35.8695 29.1481 35.8418 29.1458 35.8142C30.5591 21.7434 27.6659 18 27.6659 18C27.2393 18.0265 26.0793 18.3053 26.0793 18.3053ZM37.1454 21.3186C37.1454 21.3186 36.4921 18.9292 33.8922 18.292C33.8922 18.292 33.1323 18.1062 32.3323 18C32.3323 18 29.4258 21.7301 30.8391 35.8274C30.8524 35.9204 30.919 35.9336 30.919 35.9336C31.0124 35.9734 31.0524 35.8938 31.0524 35.8938C32.0123 34.5265 36.2521 28.2478 37.1187 24.4248C37.1187 24.4248 37.5987 22.5664 37.1454 21.3186ZM33.2522 38.6681C33.2522 38.6681 33.1589 38.6681 33.1323 38.7345C33.1323 38.7345 33.1189 38.8274 33.1723 38.8673C34.1055 39.5442 36.972 41.5221 38.3453 41.9204C38.3453 41.9204 38.5586 41.9867 38.9186 42H39.1053C40.0252 41.9735 41.6384 41.5088 43.105 39L33.2389 38.6681H33.2522ZM43.6917 27.5044C43.8783 24.7699 41.1051 22.2345 41.1051 22.2212C41.1051 22.2212 35.9721 28.4071 32.2123 36.5575C32.2123 36.5575 32.1723 36.6637 32.239 36.7301L32.2923 36.7434H32.3723C33.7856 36.0398 39.6519 33.0664 42.0784 30.7168C42.0784 30.7168 43.6117 29.4823 43.6917 27.5044ZM45.7182 30.3451C45.7182 30.3451 37.3454 34.8186 33.0256 37.7124C33.0256 37.7124 32.9589 37.7655 32.9856 37.8584C32.9856 37.8584 33.0256 37.938 33.0789 37.938C34.6255 37.938 40.4918 37.938 40.6385 37.9115C40.6385 37.9115 41.3985 37.885 42.3317 37.5265C42.3317 37.5265 44.4116 36.8628 45.4916 34.5133C45.4916 34.5133 46.4648 32.5885 45.7182 30.3451Z" fill="white"/>
</svg>
