<svg width="60" height="60" viewBox="0 0 60 60" fill="none" xmlns="http://www.w3.org/2000/svg">
<rect width="60" height="60" rx="13" fill="#0D68E0"/>
<path d="M50.8197 40.11H50.8017V13H9.68793V40.11H9.71239L3.79431 44.7559V46.0312H30.266H56.7377V44.7559L50.8197 40.11ZM11.4252 14.6459H49.4265V39.3176H11.5993L11.4252 14.6459ZM24.9717 44.7559L26.5288 43.572H30.7659H34.3146L35.8718 44.7559H30.7659H24.9717ZM8.60321 42.6391L10.694 41.1281H50.1061L52.3014 42.6391H8.60321Z" fill="white"/>
<path d="M24 21L37 34" stroke="white"/>
<path d="M25.366 28.0546C25.0626 28.358 25.0626 28.8517 25.366 29.1581C25.6693 29.4614 26.163 29.4614 26.4694 29.1581C28.5692 27.0583 31.9865 27.0583 34.0863 29.1581C34.238 29.3097 34.4372 29.3871 34.6365 29.3871C34.8358 29.3871 35.0351 29.3097 35.1867 29.1581C35.4901 28.8547 35.4901 28.361 35.1867 28.0546C32.4802 25.3451 28.0725 25.3451 25.366 28.0546Z" fill="white"/>
<path d="M27.4717 30.1604C27.1683 30.4637 27.1683 30.9574 27.4717 31.2638C27.775 31.5671 28.2687 31.5671 28.5751 31.2638C29.512 30.3239 31.0407 30.3239 31.9776 31.2638C32.1293 31.4155 32.3285 31.4928 32.5278 31.4928C32.7271 31.4928 32.9263 31.4155 33.078 31.2638C33.3814 30.9604 33.3814 30.4667 33.078 30.1633C31.5344 28.6138 29.0182 28.6138 27.4717 30.1604Z" fill="white"/>
<path d="M30.2763 34.0001C30.8495 34.0001 31.3143 33.5353 31.3143 32.9621C31.3143 32.3888 30.8495 31.9241 30.2763 31.9241C29.703 31.9241 29.2383 32.3888 29.2383 32.9621C29.2383 33.5353 29.703 34.0001 30.2763 34.0001Z" fill="white"/>
<path d="M37.3252 25.9132C33.4379 22.0289 27.1148 22.0289 23.2275 25.9132C22.9242 26.2166 22.9242 26.7103 23.2275 27.0166C23.5309 27.32 24.0246 27.32 24.331 27.0166C27.6085 23.7361 32.9442 23.7361 36.2247 27.0166C36.3764 27.1683 36.5757 27.2457 36.775 27.2457C36.9742 27.2457 37.1735 27.1683 37.3252 27.0166C37.6286 26.7133 37.6286 26.2196 37.3252 25.9132Z" fill="white"/>
</svg>
