<svg width="60" height="60" viewBox="0 0 60 60" fill="none" xmlns="http://www.w3.org/2000/svg">
<rect width="60" height="60" rx="13" fill="#0D68E0"/>
<path d="M50.8198 40.11H50.8018V13H9.68805V40.11H9.71251L3.79443 44.7559V46.0312H30.2661H56.7379V44.7559L50.8198 40.11ZM11.4253 14.6459H49.4267V39.3176H11.5995L11.4253 14.6459ZM24.9718 44.7559L26.529 43.572H30.7661H34.3148L35.8719 44.7559H30.7661H24.9718ZM8.60333 42.6391L10.6942 41.1281H50.1062L52.3016 42.6391H8.60333Z" fill="white"/>
<path d="M21.2704 26.7178C21.2661 25.9861 21.5976 25.4345 22.2672 25.0279C21.8927 24.4914 21.3262 24.1964 20.5794 24.1395C19.8723 24.0837 19.0987 24.5515 18.8155 24.5515C18.5161 24.5515 17.8315 24.1588 17.2929 24.1588C16.1813 24.176 15 25.0451 15 26.8133C15 27.3358 15.0955 27.8755 15.2865 28.4313C15.5418 29.1631 16.4624 30.956 17.4227 30.927C17.9249 30.9152 18.28 30.5708 18.9335 30.5708C19.5676 30.5708 19.8959 30.927 20.456 30.927C21.4249 30.9131 22.2575 29.2833 22.5 28.5494C21.2006 27.9367 21.2704 26.7554 21.2704 26.7178ZM21.1567 29.5826C21.0032 29.7961 20.8487 29.9646 20.7071 30.073C20.5944 30.1588 20.5075 30.1953 20.4496 30.1974C20.353 30.1964 20.2597 30.1727 20.0773 30.103C20.0644 30.0976 20.0504 30.0923 20.0322 30.0858L19.985 30.0676C19.7983 29.9957 19.6867 29.9571 19.544 29.9195C19.3444 29.868 19.1459 29.8401 18.9335 29.8401C18.7167 29.8401 18.5129 29.867 18.3101 29.9174C18.1609 29.9549 18.0354 29.9968 17.8519 30.0655C17.8444 30.0687 17.765 30.0987 17.7425 30.1073C17.7049 30.1212 17.676 30.132 17.6491 30.1416C17.5376 30.1803 17.4667 30.1964 17.4034 30.1974C17.3959 30.1974 17.3895 30.1964 17.3841 30.1953C17.3723 30.1931 17.3573 30.1888 17.3401 30.1813C17.2918 30.162 17.2339 30.1266 17.1685 30.0762C17.0182 29.9592 16.853 29.7758 16.6845 29.5408C16.3895 29.1266 16.1105 28.5773 15.9764 28.1921C15.8112 27.7114 15.7296 27.2511 15.7296 26.8122C15.7296 26.1663 15.9206 25.6749 16.2489 25.3412C16.5311 25.0558 16.9109 24.8959 17.2983 24.8873C17.3616 24.8884 17.4539 24.9034 17.5708 24.9356C17.6631 24.9603 17.7639 24.9936 17.9002 25.0418C17.941 25.0569 18.0815 25.1073 18.0987 25.1137C18.1813 25.1438 18.2436 25.1652 18.3047 25.1845C18.5 25.2468 18.6513 25.2811 18.8155 25.2811C18.9818 25.2811 19.1245 25.2457 19.3273 25.176C19.4034 25.1502 19.6803 25.0472 19.7296 25.03C20.0043 24.9324 20.2071 24.8798 20.382 24.867C20.4335 24.8627 20.4796 24.8627 20.5236 24.8659C20.7672 24.8852 20.9753 24.9335 21.1524 25.0139C20.7489 25.4796 20.5408 26.0494 20.5418 26.7135C20.5386 26.8712 20.5515 27.0536 20.5966 27.2693C20.6652 27.5966 20.7961 27.9206 21.0032 28.2242C21.1609 28.4549 21.3562 28.6631 21.5901 28.8444C21.4667 29.0987 21.3155 29.3616 21.1567 29.5826ZM20.1427 23.4453C20.6867 22.7994 20.6373 22.2114 20.6212 22C20.1406 22.0279 19.5848 22.3273 19.2682 22.6953C18.9195 23.0901 18.7146 23.5783 18.7586 24.1288C19.2779 24.1685 19.7521 23.9013 20.1427 23.4453Z" fill="white"/>
<path d="M45.7172 28.7319L45.1784 27.6547C45.1265 27.5508 45.0467 27.4635 44.948 27.4025C44.8493 27.3414 44.7355 27.3091 44.6194 27.3091H44.4731C44.3649 26.8019 44.1727 26.3163 43.9044 25.8725C43.5828 25.2631 43.25 24.6337 43.25 23.875C43.25 23.3777 43.0525 22.9008 42.7008 22.5492C42.3492 22.1975 41.8723 22 41.375 22C40.8777 22 40.4008 22.1975 40.0492 22.5492C39.6975 22.9008 39.5 23.3777 39.5 23.875C39.4556 24.5664 39.2352 25.235 38.8597 25.8172C38.5789 26.2766 38.3811 26.7818 38.2753 27.3097H38.1306C38.0145 27.3097 37.9007 27.342 37.802 27.4031C37.7032 27.4641 37.6235 27.5515 37.5716 27.6553L37.0328 28.7325C37.0068 28.7846 36.9959 28.843 37.0014 28.9009C37.0068 28.9589 37.0283 29.0142 37.0634 29.0606L38.3225 30.725C38.4657 30.8968 38.6656 31.0118 38.8861 31.0491C39.1066 31.0865 39.3332 31.0438 39.525 30.9288L40.1106 30.5775C40.5212 30.6973 40.9473 30.7554 41.375 30.75C41.803 30.7555 42.2294 30.6973 42.6403 30.5772L43.225 30.9281C43.37 31.0158 43.5362 31.0622 43.7056 31.0625C43.8458 31.0618 43.984 31.0301 44.1104 30.9696C44.2369 30.9092 44.3483 30.8215 44.4369 30.7128L45.6869 29.0603C45.722 29.0138 45.7435 28.9584 45.7488 28.9004C45.7542 28.8424 45.7432 28.784 45.7172 28.7319ZM43.3519 26.1644C43.5651 26.5223 43.7291 26.9073 43.8394 27.3091H43.1681C43.0896 27.0254 42.9871 26.7489 42.8619 26.4825C42.7444 26.2378 42.6524 25.9816 42.5872 25.7181C42.7062 25.5802 42.8112 25.4308 42.9006 25.2722L42.9128 25.2497C43.043 25.5621 43.1895 25.8674 43.3519 26.1644ZM40.125 27.9375C40.1491 27.5168 40.2635 27.1063 40.4603 26.7338C40.5403 26.5519 40.6216 26.3666 40.6872 26.1716C40.892 26.3043 41.1309 26.375 41.375 26.375C41.6191 26.375 41.858 26.3043 42.0628 26.1716C42.1284 26.3666 42.2097 26.5519 42.2897 26.7341C42.4865 27.1065 42.6008 27.5169 42.625 27.9375C42.625 28.34 42.4953 28.875 41.375 28.875C40.2547 28.875 40.125 28.34 40.125 27.9375ZM42.1594 25.2578C42.0706 25.3904 41.9549 25.5028 41.8197 25.5877C41.6846 25.6725 41.533 25.7278 41.375 25.75C41.2169 25.7278 41.0654 25.6724 40.9302 25.5875C40.795 25.5027 40.6793 25.3902 40.5906 25.2575C41.0986 25.0807 41.6514 25.0807 42.1594 25.2575V25.2578ZM40.125 23.875C40.125 23.5435 40.2567 23.2255 40.4911 22.9911C40.7255 22.7567 41.0435 22.625 41.375 22.625C41.7065 22.625 42.0245 22.7567 42.2589 22.9911C42.4933 23.2255 42.625 23.5435 42.625 23.875C42.6263 24.2048 42.6755 24.5327 42.7709 24.8484C42.6251 24.7677 42.4715 24.7017 42.3125 24.6516V23.875H41.6875V24.5169C41.4798 24.4943 41.2702 24.4943 41.0625 24.5169V23.875H40.4375V24.6516C40.2772 24.702 40.1224 24.7687 39.9756 24.8506C40.0734 24.5346 40.1237 24.2058 40.125 23.875ZM39.4109 26.1125C39.5669 25.8304 39.7081 25.5405 39.8341 25.2438L39.8494 25.2719C39.9388 25.4306 40.0438 25.5801 40.1628 25.7181C40.0976 25.9815 40.0055 26.2376 39.8881 26.4822C39.7628 26.7488 39.6604 27.0255 39.5819 27.3094H38.9075C39.015 26.8877 39.1846 26.4843 39.4106 26.1125H39.4109ZM39.8391 30.0116L39.2034 30.3928C39.1419 30.4308 39.069 30.446 38.9974 30.4357C38.9259 30.4254 38.8602 30.3903 38.8119 30.3366L37.6787 28.8384L38.1306 27.9347H39.2887L39.9656 29.6203C39.9952 29.6898 39.9986 29.7677 39.9754 29.8396C39.9521 29.9114 39.9037 29.9725 39.8391 30.0116ZM40.5628 30.0481C40.6383 29.8337 40.6321 29.5989 40.5453 29.3887C40.8148 29.4669 41.0944 29.5044 41.375 29.5C41.6557 29.5044 41.9354 29.4669 42.205 29.3887C42.1194 29.5992 42.1134 29.8336 42.1881 30.0481C41.6513 30.1506 41.0999 30.1506 40.5631 30.0481H40.5628ZM43.9472 30.3244C43.8996 30.3818 43.833 30.4202 43.7595 30.4327C43.6859 30.4451 43.6104 30.4308 43.5466 30.3922L42.9109 30.0109C42.8455 29.971 42.7969 29.9086 42.7741 29.8353C42.7513 29.7621 42.756 29.6832 42.7872 29.6131L43.4612 27.9341H44.6191L45.0709 28.8378L43.9472 30.3244Z" fill="white"/>
<path d="M34.125 22.875L25.875 23.997V30.003L34.125 31.125V22.875ZM33.375 23.7337V26.625H29.625V24.2437L33.375 23.7337ZM28.875 24.3454V26.625H26.625V24.6517L28.875 24.3457V24.3454ZM26.625 27.375H28.875V29.6542L26.625 29.3482V27.375ZM29.625 27.375H33.375V30.2662L29.625 29.7563V27.375Z" fill="white"/>
</svg>
