<svg width="60" height="60" viewBox="0 0 60 60" fill="none" xmlns="http://www.w3.org/2000/svg">
<rect width="60" height="60" rx="13" fill="#0D68E0"/>
<path d="M50.8198 40.11H50.8018V13H9.68805V40.11H9.71251L3.79443 44.7559V46.0312H30.2661H56.7379V44.7559L50.8198 40.11ZM11.4253 14.6459H49.4267V39.3176H11.5995L11.4253 14.6459ZM24.9718 44.7559L26.529 43.572H30.7661H34.3148L35.8719 44.7559H30.7661H24.9718ZM8.60333 42.6391L10.6942 41.1281H50.1062L52.3016 42.6391H8.60333Z" fill="white"/>
<path d="M33.3481 37H25.7769C24.7971 37 24 36.1939 24 35.2031V21.2969C24 20.3061 24.7971 19.5 25.7769 19.5H33.3481C34.3279 19.5 35.125 20.3061 35.125 21.2969V35.2031C35.125 36.1939 34.3279 37 33.3481 37ZM25.7769 20.75C25.4787 20.75 25.2361 20.9953 25.2361 21.2969V35.2031C25.2361 35.5047 25.4787 35.75 25.7769 35.75H33.3481C33.6463 35.75 33.8889 35.5047 33.8889 35.2031V21.2969C33.8889 20.9953 33.6463 20.75 33.3481 20.75H25.7769Z" fill="white"/>
<path d="M32.0347 20.75H27.0902C26.7489 20.75 26.4722 20.4702 26.4722 20.125V18.4062C26.4722 17.6308 27.096 17 27.8628 17H31.2621C32.0289 17 32.6527 17.6308 32.6527 18.4062V20.125C32.6527 20.4702 32.376 20.75 32.0347 20.75ZM27.7083 19.5H31.4166V18.4062C31.4166 18.3201 31.3473 18.25 31.2621 18.25H27.8628C27.7776 18.25 27.7083 18.3201 27.7083 18.4062V19.5Z" fill="white"/>
<path d="M32.0347 34.8125H27.0902C26.7489 34.8125 26.4722 34.5327 26.4722 34.1875C26.4722 33.8423 26.7489 33.5625 27.0902 33.5625H32.0347C32.376 33.5625 32.6527 33.8423 32.6527 34.1875C32.6527 34.5327 32.376 34.8125 32.0347 34.8125Z" fill="white"/>
<path d="M32.0347 32.3125H27.0902C26.7489 32.3125 26.4722 32.0327 26.4722 31.6875C26.4722 31.3423 26.7489 31.0625 27.0902 31.0625H32.0347C32.376 31.0625 32.6527 31.3423 32.6527 31.6875C32.6527 32.0327 32.376 32.3125 32.0347 32.3125Z" fill="white"/>
<path d="M32.0347 29.8125H27.0902C26.7489 29.8125 26.4722 29.5327 26.4722 29.1875C26.4722 28.8423 26.7489 28.5625 27.0902 28.5625H32.0347C32.376 28.5625 32.6527 28.8423 32.6527 29.1875C32.6527 29.5327 32.376 29.8125 32.0347 29.8125Z" fill="white"/>
<path d="M22 20L37.5 35.5" stroke="white"/>
</svg>
