<svg width="60" height="60" viewBox="0 0 60 60" fill="none" xmlns="http://www.w3.org/2000/svg">
<rect width="60" height="60" rx="13" fill="#0D68E0"/>
<path d="M50.8198 40.11H50.8018V13H9.68805V40.11H9.71251L3.79443 44.7559V46.0312H30.2661H56.7379V44.7559L50.8198 40.11ZM11.4253 14.6459H49.4267V39.3176H11.5995L11.4253 14.6459ZM24.9718 44.7559L26.529 43.572H30.7661H34.3148L35.8719 44.7559H30.7661H24.9718ZM8.60333 42.6391L10.6942 41.1281H50.1062L52.3016 42.6391H8.60333Z" fill="white"/>
<path d="M22 20L37 35" stroke="white"/>
<path d="M32.4736 21.3389C32.151 21.2156 31.7898 21.377 31.6665 21.6994C31.5433 22.0218 31.7047 22.3831 32.027 22.5064C34.2363 23.3512 35.7639 25.4808 35.7639 27.9375C35.7639 31.1426 33.1564 33.75 29.9514 33.75C26.7464 33.75 24.1389 31.1426 24.1389 27.9375C24.1389 25.4794 25.6673 23.3511 27.8756 22.5065C28.198 22.3832 28.3594 22.0218 28.2361 21.6995C28.1127 21.3771 27.7513 21.2157 27.429 21.339C24.7384 22.3681 22.8889 24.9592 22.8889 27.9375C22.8889 31.8413 26.048 35 29.9514 35C33.8552 35 37.0139 31.841 37.0139 27.9375C37.0139 24.9578 35.1632 22.3675 32.4736 21.3389Z" fill="white"/>
<path d="M30 19C29.6548 19 29.375 19.2798 29.375 19.625V25.7453C29.375 26.0905 29.6548 26.3703 30 26.3703C30.3452 26.3703 30.625 26.0905 30.625 25.7453V19.625C30.625 19.2798 30.3452 19 30 19Z" fill="white"/>
</svg>
