<svg width="60" height="60" viewBox="0 0 60 60" fill="none" xmlns="http://www.w3.org/2000/svg">
<rect width="60" height="60" rx="13" fill="#0D68E0"/>
<path d="M50.8197 40.11H50.8017V13H9.68793V40.11H9.71239L3.79431 44.7559V46.0312H30.266H56.7377V44.7559L50.8197 40.11ZM11.4252 14.6459H49.4265V39.3176H11.5993L11.4252 14.6459ZM24.9717 44.7559L26.5288 43.572H30.7659H34.3146L35.8718 44.7559H30.7659H24.9717ZM8.60321 42.6391L10.694 41.1281H50.1061L52.3014 42.6391H8.60321Z" fill="white"/>
<path d="M43 14L40.7295 17.6437C40.6244 17.8123 40.4715 17.9459 40.2902 18.0272L34.8748 20.4569C34.5154 20.6182 34.2842 20.9754 34.2842 21.3693V24.4813M34.2842 24.4813L36.1694 27.3008M34.2842 24.4813L29.9983 26.0837C29.5638 26.2462 29.0747 26.0885 28.8168 25.7029L28 24.4813M36.1694 27.3008L38.6831 32M36.1694 27.3008L31.7705 32" stroke="white"/>
</svg>
