<svg width="60" height="60" viewBox="0 0 60 60" fill="none" xmlns="http://www.w3.org/2000/svg">
<rect width="60" height="60" rx="13" fill="#0D68E0"/>
<path d="M50.8198 40.11H50.8018V13H9.68805V40.11H9.71251L3.79443 44.7559V46.0312H30.2661H56.7379V44.7559L50.8198 40.11ZM11.4253 14.6459H49.4267V39.3176H11.5995L11.4253 14.6459ZM24.9718 44.7559L26.529 43.572H30.7661H34.3148L35.8719 44.7559H30.7661H24.9718ZM8.60333 42.6391L10.6942 41.1281H50.1062L52.3016 42.6391H8.60333Z" fill="white"/>
<path d="M20 18L40 38" stroke="white"/>
<path d="M39.625 21H20.375C20.0103 21 19.6606 21.1449 19.4027 21.4027C19.1449 21.6606 19 22.0103 19 22.375V33.375C19 33.7397 19.1449 34.0894 19.4027 34.3473C19.6606 34.6051 20.0103 34.75 20.375 34.75H39.625C39.9897 34.75 40.3394 34.6051 40.5973 34.3473C40.8551 34.0894 41 33.7397 41 33.375V22.375C41 22.0103 40.8551 21.6606 40.5973 21.4027C40.3394 21.1449 39.9897 21 39.625 21ZM39.625 33.375H20.375V22.375H39.625V33.375Z" fill="white"/>
<path d="M22.4375 24.4375H23.8125V25.8125H22.4375V24.4375Z" fill="white"/>
<path d="M36.1875 24.4375H37.5625V25.8125H36.1875V24.4375Z" fill="white"/>
<path d="M22.4375 27.1875H23.8125V28.5625H22.4375V27.1875Z" fill="white"/>
<path d="M25.1875 27.1875H26.5625V28.5625H25.1875V27.1875Z" fill="white"/>
<path d="M27.9375 27.1875H29.3125V28.5625H27.9375V27.1875Z" fill="white"/>
<path d="M30.6875 27.1875H32.0625V28.5625H30.6875V27.1875Z" fill="white"/>
<path d="M33.4375 27.1875H34.8125V28.5625H33.4375V27.1875Z" fill="white"/>
<path d="M36.1875 27.1875H37.5625V28.5625H36.1875V27.1875Z" fill="white"/>
<path d="M36.1875 30.625H37.5213V32H36.1875V30.625Z" fill="white"/>
<path d="M22.4375 30.625H23.8125V32H22.4375V30.625Z" fill="white"/>
<path d="M25.2769 30.625H34.73V32H25.2769V30.625Z" fill="white"/>
<path d="M25.1875 24.4375H26.5625V25.8125H25.1875V24.4375Z" fill="white"/>
<path d="M27.9375 24.4375H29.3125V25.8125H27.9375V24.4375Z" fill="white"/>
<path d="M30.6875 24.4375H32.0625V25.8125H30.6875V24.4375Z" fill="white"/>
<path d="M33.4375 24.4375H34.8125V25.8125H33.4375V24.4375Z" fill="white"/>
</svg>
