<svg width="60" height="60" viewBox="0 0 60 60" fill="none" xmlns="http://www.w3.org/2000/svg">
<rect width="60" height="60" rx="13" fill="#0D68E0"/>
<path d="M50.8198 40.11H50.8018V13H9.68805V40.11H9.71251L3.79443 44.7559V46.0312H30.2661H56.7379V44.7559L50.8198 40.11ZM11.4253 14.6459H49.4267V39.3176H11.5995L11.4253 14.6459ZM24.9718 44.7559L26.529 43.572H30.7661H34.3148L35.8719 44.7559H30.7661H24.9718ZM8.60333 42.6391L10.6942 41.1281H50.1062L52.3016 42.6391H8.60333Z" fill="white"/>
<path d="M25.2953 22.6232C25.1143 22.6232 24.9674 22.4763 24.9674 22.2953V20.6558H24.3116V22.2953C24.3116 22.4763 24.1647 22.6232 23.9837 22.6232C23.8027 22.6232 23.6558 22.4763 23.6558 22.2953V20.3279C23.6558 20.1469 23.8027 20 23.9837 20H25.2953C25.4763 20 25.6232 20.1469 25.6232 20.3279V22.2953C25.6232 22.4763 25.4763 22.6232 25.2953 22.6232Z" fill="white"/>
<path d="M30.214 35.7393C26.9592 35.7393 24.3118 33.0911 24.3118 29.837V24.9185C24.3118 24.7375 24.4587 24.5906 24.6397 24.5906C24.8207 24.5906 24.9676 24.7375 24.9676 24.9185V29.837C24.9676 32.7298 27.3212 35.0835 30.214 35.0835C33.1067 35.0835 35.4604 32.7298 35.4604 29.837V25.5743C35.4604 25.3933 35.6073 25.2464 35.7883 25.2464C35.9693 25.2464 36.1162 25.3933 36.1162 25.5743V29.837C36.1162 33.0911 33.4687 35.7393 30.214 35.7393Z" fill="white"/>
<path d="M30.2139 35.7393C27.6832 35.7393 25.6233 33.68 25.6233 31.1487C25.6233 28.6173 27.6832 26.558 30.2139 26.558C32.7446 26.558 34.8045 28.6173 34.8045 31.1487C34.8045 33.68 32.7446 35.7393 30.2139 35.7393ZM30.2139 27.2138C28.0439 27.2138 26.2791 28.9786 26.2791 31.1487C26.2791 33.3187 28.0439 35.0835 30.2139 35.0835C32.3839 35.0835 34.1487 33.3187 34.1487 31.1487C34.1487 28.9786 32.3839 27.2138 30.2139 27.2138Z" fill="white"/>
<path d="M36.444 25.9021H35.1324C34.2281 25.9021 33.4929 25.1663 33.4929 24.2626V22.951C33.4929 22.77 33.6398 22.6231 33.8208 22.6231H37.7556C37.9366 22.6231 38.0835 22.77 38.0835 22.951V24.2626C38.0835 25.1663 37.3484 25.9021 36.444 25.9021ZM34.1487 23.2789V24.2626C34.1487 24.805 34.5901 25.2463 35.1324 25.2463H36.444C36.9864 25.2463 37.4277 24.805 37.4277 24.2626V23.2789H34.1487Z" fill="white"/>
<path d="M25.9511 25.2464H23.3279C23.1469 25.2464 23 25.0995 23 24.9185V22.2953C23 22.1143 23.1469 21.9674 23.3279 21.9674H25.9511C26.1321 21.9674 26.279 22.1143 26.279 22.2953V24.9185C26.279 25.0995 26.1321 25.2464 25.9511 25.2464ZM23.6558 24.5906H25.6232V22.6232H23.6558V24.5906Z" fill="white"/>
<path d="M37.0998 23.2789C36.9188 23.2789 36.7719 23.132 36.7719 22.951V21.3115H34.8045V22.951C34.8045 23.132 34.6576 23.2789 34.4766 23.2789C34.2956 23.2789 34.1487 23.132 34.1487 22.951V20.9836C34.1487 20.8026 34.2956 20.6557 34.4766 20.6557H37.0998C37.2808 20.6557 37.4277 20.8026 37.4277 20.9836V22.951C37.4277 23.132 37.2808 23.2789 37.0998 23.2789Z" fill="white"/>
<path d="M20 18L40 38" stroke="white"/>
</svg>
