<svg width="60" height="60" viewBox="0 0 60 60" fill="none" xmlns="http://www.w3.org/2000/svg">
<rect width="60" height="60" rx="13" fill="#0D68E0"/>
<path d="M50.8197 40.11H50.8017V13H9.68793V40.11H9.71239L3.79431 44.7559V46.0312H30.266H56.7377V44.7559L50.8197 40.11ZM11.4252 14.6459H49.4265V39.3176H11.5993L11.4252 14.6459ZM24.9717 44.7559L26.5288 43.572H30.7659H34.3146L35.8718 44.7559H30.7659H24.9717ZM8.60321 42.6391L10.694 41.1281H50.1061L52.3014 42.6391H8.60321Z" fill="white"/>
<path d="M31.8855 20.764C31.5391 20.2206 31.2335 19.7208 30.9482 19.2643C30.9075 19.1991 30.8464 19.1339 30.7852 19.0905C30.5407 18.9166 30.2147 19.0035 30.0517 19.2643C29.7868 19.7208 29.4812 20.1989 29.1144 20.764C27.5047 23.2852 25.1003 27.0887 25.1003 29.2621C25.1003 30.8487 25.7116 32.2832 26.6897 33.3264C27.6677 34.348 29.0125 35 30.5 35C31.9874 35 33.3322 34.348 34.3103 33.3047C35.2883 32.2615 35.8996 30.827 35.8996 29.2404C35.8996 27.067 33.4952 23.2852 31.8855 20.764ZM33.5767 32.5223C32.7821 33.3699 31.7021 33.8698 30.5 33.8698C29.2978 33.8698 28.2179 33.3482 27.4232 32.5223C26.6285 31.6746 26.1599 30.5227 26.1599 29.2404C26.1599 27.4147 28.4624 23.7851 29.9906 21.3726C30.1739 21.09 30.337 20.8075 30.5 20.5684C30.663 20.8075 30.826 21.09 31.0094 21.3726C32.5376 23.8068 34.84 27.4147 34.84 29.2404C34.84 30.5227 34.351 31.6746 33.5767 32.5223Z" fill="white"/>
<path d="M33.6582 28.8493C33.3729 28.8275 33.1284 29.0666 33.108 29.3709C33.0877 29.8491 32.945 30.3055 32.7209 30.6967C32.4968 31.0879 32.1707 31.4357 31.7836 31.653C31.5391 31.8051 31.4372 32.1529 31.5798 32.4137C31.7428 32.718 32.0689 32.8049 32.3134 32.6528C32.8635 32.3268 33.3118 31.8486 33.6174 31.3053C33.9435 30.7619 34.1268 30.1099 34.1472 29.4361C34.1676 29.1318 33.9435 28.871 33.6582 28.8493Z" fill="white"/>
</svg>
