<svg width="60" height="60" viewBox="0 0 60 60" fill="none" xmlns="http://www.w3.org/2000/svg">
<rect width="60" height="60" rx="13" fill="#0D68E0"/>
<path d="M26.2136 26.3595C25.2566 26.3595 24.1683 26.8055 23.5033 27.6986L23.5037 27.6968L23.5033 27.6973L23.5037 26.4996H21.2211V34.8579H23.5033V30.1019C23.5033 29.246 24.1632 28.336 25.3853 28.336C26.3297 28.336 27.307 28.9967 27.307 30.1019V34.8579H29.5896V29.6767C29.5896 27.7542 28.2217 26.3595 26.2136 26.3595ZM45.8122 26.5001L43.7487 32.1934L41.6852 26.5001H39.0779L42.4979 34.8556H44.9991L48.4191 26.5001H45.8122ZM14.407 29.018C14.7956 28.4931 15.4148 28.185 16.1626 28.185C16.9851 28.185 17.6091 28.6573 17.9317 29.3545L13.944 31.0182C13.8351 30.1644 14.0523 29.4967 14.407 29.018ZM18.792 32.2882C17.8314 33.0031 17.2825 33.1736 16.4065 33.1736C15.6181 33.1736 15.0009 32.9275 14.5657 32.4958L20.4011 30.0617C20.2737 29.1546 19.9313 28.3442 19.4045 27.7281C18.6377 26.8327 17.5029 26.359 16.1212 26.359C13.6114 26.359 11.7189 28.2207 11.7189 30.6798C11.7189 33.2026 13.6159 35 16.3728 35C17.9174 35 19.4967 34.2639 20.2355 33.4039L18.792 32.2882ZM11.5014 32.7505H6.31369V24H4V34.8579H11.5014V32.7505ZM52.5177 28.3258C51.243 28.3258 50.3174 29.2972 50.3174 30.6789C50.3174 31.9982 51.2978 33.032 52.5483 33.032C53.8234 33.032 54.7485 32.034 54.7485 30.6789C54.7485 29.3596 53.7685 28.3258 52.5177 28.3258ZM52.5177 34.9988C50.0215 34.9988 48.0655 33.1288 48.0655 30.6789C48.0655 28.2565 50.0349 26.359 52.5483 26.359C55.0446 26.359 57 28.2289 57 30.6789C57 33.1008 55.031 34.9987 52.5177 34.9987V34.9988ZM34.9443 28.3258C33.6696 28.3258 32.7445 29.2972 32.7445 30.6789C32.7445 31.9982 33.7245 33.032 34.9753 33.032C36.25 33.032 37.1751 32.034 37.1751 30.6789C37.1751 29.3596 36.1951 28.3258 34.9443 28.3258ZM34.9443 34.9988C32.448 34.9988 30.4926 33.1288 30.4926 30.6789C30.4926 28.2565 32.4615 26.359 34.9753 26.359C37.4712 26.359 39.427 28.2289 39.427 30.6789C39.427 33.1008 37.4577 34.9987 34.9443 34.9987" fill="white"/>
</svg>
