<svg width="60" height="60" viewBox="0 0 60 60" fill="none" xmlns="http://www.w3.org/2000/svg">
<rect width="60" height="60" rx="13" fill="#0D68E0"/>
<path d="M18.8104 21C16.4737 21 14.2328 21.9482 12.5805 23.636C10.9282 25.3239 10 27.6131 10 30C10 32.3869 10.9282 34.6761 12.5805 36.364C14.2328 38.0518 16.4737 39 18.8104 39C21.1173 38.9542 23.3147 37.9858 24.9303 36.303C26.546 34.6201 27.451 32.3571 27.451 30C27.451 27.6429 26.546 25.3799 24.9303 23.697C23.3147 22.0142 21.1173 21.0458 18.8104 21ZM18.8104 22.4642C18.8937 22.4642 19.0704 22.4642 19.1604 22.4677V23.1708C19.0437 23.1683 18.927 23.1666 18.8104 23.1657C17.9321 23.1635 17.0622 23.3391 16.2508 23.6825C15.4395 24.0259 14.7028 24.5302 14.0835 25.1663C13.4605 25.7987 12.9667 26.5512 12.6305 27.3801C12.2943 28.2089 12.1225 29.0977 12.1251 29.9949C12.1251 31.8201 12.8201 33.5363 14.0835 34.8235C14.7028 35.4596 15.4395 35.9639 16.2508 36.3073C17.0622 36.6507 17.9321 36.8263 18.8104 36.8241C20.5049 36.8213 22.1355 36.1626 23.3735 34.9807C24.6116 33.7988 25.3651 32.1815 25.4823 30.4546V30.3524H20.9188V29.6544H25.8873L26.1823 29.6527V29.9949C26.1854 30.9842 25.9964 31.9643 25.6262 32.8785C25.256 33.7926 24.7119 34.6227 24.0256 35.3207C23.3419 36.0224 22.5288 36.5786 21.6334 36.9574C20.7379 37.3361 19.7779 37.5298 18.8087 37.5272C16.842 37.5272 14.9902 36.744 13.5918 35.3207C12.9058 34.6226 12.362 33.7924 11.9921 32.8783C11.6222 31.9641 11.4334 30.9841 11.4367 29.9949C11.4389 27.9977 12.2164 26.083 13.5988 24.6706C14.9811 23.2582 16.8553 22.4635 18.8104 22.4608V22.4642ZM45.5815 23.9591C41.898 23.9591 39.9612 26.0142 39.9612 29.9319C39.9612 33.8309 41.7113 35.9421 45.5631 35.9421C47.3299 35.9421 49.06 35.4824 50 34.8099V29.164H45.4331V31.3331H47.5749V33.3678C47.1799 33.521 46.4099 33.6759 45.6765 33.6759C43.3097 33.6759 42.518 32.4467 42.518 29.9506C42.518 27.5704 43.2697 26.1674 45.6382 26.1674C46.9549 26.1674 47.7066 26.5897 48.3266 27.3967L49.9633 25.861C48.9666 24.4018 47.2182 23.9591 45.5815 23.9591ZM31.5592 24.1328V35.7684H39.6429V33.504H34.1927V24.1311L31.5592 24.1328ZM15.9969 26.0448C16.2776 26.0448 16.5468 26.1587 16.7453 26.3615C16.9438 26.5643 17.0553 26.8393 17.0553 27.126C17.0553 27.4127 16.9438 27.6877 16.7453 27.8905C16.5468 28.0932 16.2776 28.2072 15.9969 28.2072C15.7162 28.2072 15.447 28.0932 15.2485 27.8905C15.05 27.6877 14.9385 27.4127 14.9385 27.126C14.9385 26.8393 15.05 26.5643 15.2485 26.3615C15.447 26.1587 15.7162 26.0448 15.9969 26.0448ZM18.4604 26.0482H19.1604V33.2333H20.9138V33.9381H18.4604V26.0482Z" fill="white"/>
</svg>
