<svg width="60" height="60" viewBox="0 0 60 60" fill="none" xmlns="http://www.w3.org/2000/svg">
<rect width="60" height="60" rx="13" fill="#0D68E0"/>
<path d="M4.05471 30.4614L4.10942 25.923L4.5214 25.4904L4.93337 25.0575L10.7566 25.0276C16.4442 24.9983 16.5884 25.003 16.9418 25.2311C17.1497 25.3652 17.3932 25.6715 17.5137 25.9507C17.7086 26.4018 17.724 26.7449 17.7262 30.7183L17.7286 34.9997H15.7595V30.985C15.7595 27.4886 15.7374 26.9472 15.5876 26.7898C15.4454 26.6403 15.1065 26.6092 13.6186 26.6092H11.8215V34.9998H9.96181V26.6091H8.11911C6.47286 26.6091 6.25722 26.6315 6.0954 26.8192C5.93425 27.0064 5.91429 27.4676 5.91429 31.0146V34.9995H4.9572L4 35L4.05471 30.4616V30.4614ZM20.4897 34.7704C20.2937 34.6448 20.0353 34.3735 19.9158 34.1674C19.7105 33.8136 19.6985 33.5824 19.6985 29.9998C19.6985 26.4174 19.7105 26.1861 19.9158 25.8322C20.0353 25.6263 20.2937 25.3549 20.4897 25.2294C20.8294 25.0117 21.0485 25.0009 25.1398 25.0005L29.4334 25.0001V26.6093H21.8979L21.7276 26.8648C21.6049 27.0488 21.5573 27.4018 21.5573 28.1275V29.1349L25.2888 29.165L29.0203 29.1954V30.8045L25.2888 30.8347L21.5573 30.865V31.8723C21.5573 32.5981 21.6049 32.9511 21.7276 33.1351L21.8979 33.3906H29.4334V34.9998L25.1398 34.9993C21.0485 34.9988 20.8294 34.9881 20.4897 34.7704ZM31.5119 29.9998V25.0001H33.4809V34.9995H31.5119V29.9998ZM35.7081 34.8318C35.3375 34.559 35.1876 34.0499 35.3375 33.5726C35.467 33.1605 35.8735 32.7545 39.7649 29.1507C40.6105 28.3676 41.5648 27.4753 41.8855 27.1679L42.4686 26.6092H35.5593V25H44.3274L44.6473 25.3361C45.038 25.7466 45.0754 26.3183 44.7408 26.7653C44.6164 26.9314 43.2751 28.2186 41.7602 29.6256C40.245 31.0326 38.7347 32.4541 38.4037 32.7849L37.8019 33.3859L41.3298 33.3882L44.8575 33.3906V34.9995H40.3969C36.6629 34.9995 35.8991 34.9722 35.7081 34.8317V34.8318ZM47.3624 34.7388C46.6131 34.2127 46.6082 34.1781 46.6079 29.339V25H48.4676V28.9655C48.4676 32.7775 48.476 32.9396 48.6863 33.1606C48.8943 33.3791 49.051 33.3906 51.8417 33.3906C54.5478 33.3906 54.7925 33.374 54.9594 33.1803C55.1205 32.9933 55.1403 32.5319 55.1403 28.985V25.0001H57V29.4404C57 33.6917 56.9907 33.8967 56.7795 34.2556C56.3496 34.9867 56.2611 34.9998 51.7762 34.9998C47.7561 34.9998 47.7321 34.9984 47.3625 34.7389L47.3624 34.7388Z" fill="white"/>
</svg>
