<svg width="60" height="60" viewBox="0 0 60 60" fill="none" xmlns="http://www.w3.org/2000/svg">
<rect width="60" height="60" rx="13" fill="#0D68E0"/>
<path fill-rule="evenodd" clip-rule="evenodd" d="M36.8049 8C37.3849 8 38.2148 8.26519 38.9225 8.80642C39.6587 9.36938 40.3097 10.2676 40.4137 11.5506L40.4161 11.5808V11.6112V15.5944V48.6385V48.675L40.4126 48.7114C40.3183 49.678 39.5428 51.6838 37.183 52.1777L37.107 52.1936H37.0293H33.7193H31.4752H29.0068V50.6936H31.4752H33.7193H36.9474C38.364 50.3615 38.847 49.1697 38.9161 48.5981V15.5944V11.6434C38.845 10.8663 38.4619 10.3425 38.0114 9.99795C37.527 9.62752 37.0104 9.5 36.8049 9.5V8.75L36.8049 9.5H36.8049H36.8048H36.8047H36.8046H36.8044H36.8043H36.8041H36.8038H36.8036H36.8033H36.803H36.8026H36.8023H36.8019H36.8015H36.801H36.8006H36.8001H36.7996H36.799H36.7984H36.7978H36.7972H36.7966H36.7959H36.7952H36.7945H36.7937H36.7929H36.7921H36.7913H36.7905H36.7896H36.7887H36.7878H36.7868H36.7858H36.7848H36.7838H36.7827H36.7817H36.7806H36.7795H36.7783H36.7771H36.7759H36.7747H36.7735H36.7722H36.7709H36.7696H36.7683H36.7669H36.7655H36.7641H36.7627H36.7612H36.7597H36.7582H36.7567H36.7552H36.7536H36.752H36.7504H36.7488H36.7471H36.7454H36.7437H36.742H36.7402H36.7385H36.7367H36.7348H36.733H36.7311H36.7293H36.7274H36.7254H36.7235H36.7215H36.7195H36.7175H36.7155H36.7134H36.7113H36.7093H36.7071H36.705H36.7028H36.7007H36.6985H36.6962H36.694H36.6917H36.6894H36.6871H36.6848H36.6825H36.6801H36.6777H36.6753H36.6729H36.6704H36.668H36.6655H36.663H36.6605H36.6579H36.6553H36.6528H36.6502H36.6475H36.6449H36.6422H36.6396H36.6369H36.6341H36.6314H36.6287H36.6259H36.6231H36.6203H36.6175H36.6146H36.6117H36.6089H36.606H36.603H36.6001H36.5971H36.5942H36.5912H36.5882H36.5851H36.5821H36.579H36.576H36.5729H36.5698H36.5666H36.5635H36.5603H36.5571H36.5539H36.5507H36.5475H36.5442H36.541H36.5377H36.5344H36.5311H36.5277H36.5244H36.521H36.5176H36.5143H36.5108H36.5074H36.504H36.5005H36.497H36.4935H36.49H36.4865H36.483H36.4794H36.4759H36.4723H36.4687H36.4651H36.4614H36.4578H36.4541H36.4505H36.4468H36.4431H36.4394H36.4356H36.4319H36.4281H36.4243H36.4206H36.4168H36.4129H36.4091H36.4053H36.4014H36.3975H36.3936H36.3897H36.3858H36.3819H36.378H36.374H36.3701H36.3661H36.3621H36.3581H36.3541H36.35H36.346H36.3419H36.3379H36.3338H36.3297H36.3256H36.3215H36.3173H36.3132H36.309H36.3049H36.3007H36.2965H36.2923H36.2881H36.2839H36.2796H36.2754H36.2711H36.2668H36.2626H36.2583H36.254H36.2496H36.2453H36.241H36.2366H36.2323H36.2279H36.2235H36.2191H36.2147H36.2103H36.2059H36.2014H36.197H36.1925H36.1881H36.1836H36.1791H36.1746H36.1701H36.1656H36.1611H36.1565H36.152H36.1475H36.1429H36.1383H36.1337H36.1292H36.1246H36.1199H36.1153H36.1107H36.1061H36.1014H36.0968H36.0921H36.0875H36.0828H36.0781H36.0734H36.0687H36.064H36.0593H36.0545H36.0498H36.0451H36.0403H36.0356H36.0308H36.026H36.0212H36.0165H36.0117H36.0069H36.0021H35.9972H35.9924H35.9876H35.9828H35.9779H35.9731H35.9682H35.9633H35.9585H35.9536H35.9487H35.9438H35.9389H35.934H35.9291H35.9242H35.9193H35.9144H35.9094H35.9045H35.8996H35.8946H35.8897H35.8847H35.8797H35.8748H35.8698H35.8648H35.8598H35.8548H35.8498H35.8448H35.8398H35.8348H35.8298H35.8248H35.8198H35.8147H35.8097H35.8047H35.7996H35.7946H35.7895H35.7845H35.7794H35.7744H35.7693H35.7642H35.7592H35.7541H35.749H35.7439H35.7389H35.7338H35.7287H35.7236H35.7185H35.7134H35.7083H35.7032H35.6981H35.693H35.6878H35.6827H35.6776H35.6725H35.6674H35.6622H35.6571H35.652H35.6468H35.6417H35.6366H35.6314H35.6263H35.6212H35.616H35.6109H35.6057H35.6006H35.5954H35.5903H35.5851H35.58H35.5748H35.5697H35.5645H35.5594H35.5542H35.549H35.5439H35.5387H35.5336H35.5284H35.5233H35.5181H35.5129H35.5078H35.5026H35.4975H35.4923H35.4871H35.482H35.4792V9.53543C35.4792 9.81435 35.381 10.1423 35.1486 10.4183C34.9009 10.7124 34.5337 10.909 34.0745 10.9549L34.0372 10.9587H33.9998H29.7361V10.9586H28.8946H28.6141V9.45863H28.8946H29.7361V9.45865H33.9538C33.9636 9.45703 33.9721 9.45527 33.9792 9.45352V8.8061V8.34258L34.3937 8.13528L34.506 8.07918L34.6643 8H34.8414H34.8459H34.8504H34.8549H34.8594H34.864H34.8685H34.8731H34.8776H34.8822H34.8868H34.8914H34.896H34.9006H34.9052H34.9098H34.9145H34.9191H34.9238H34.9284H34.9331H34.9378H34.9425H34.9472H34.9519H34.9566H34.9613H34.966H34.9708H34.9755H34.9803H34.985H34.9898H34.9946H34.9993H35.0041H35.0089H35.0137H35.0185H35.0234H35.0282H35.033H35.0379H35.0427H35.0476H35.0524H35.0573H35.0621H35.067H35.0719H35.0768H35.0817H35.0866H35.0915H35.0964H35.1014H35.1063H35.1112H35.1161H35.1211H35.126H35.131H35.136H35.1409H35.1459H35.1509H35.1559H35.1608H35.1658H35.1708H35.1758H35.1808H35.1858H35.1909H35.1959H35.2009H35.2059H35.211H35.216H35.221H35.2261H35.2311H35.2362H35.2413H35.2463H35.2514H35.2565H35.2615H35.2666H35.2717H35.2768H35.2818H35.2869H35.292H35.2971H35.3022H35.3073H35.3124H35.3175H35.3226H35.3278H35.3329H35.338H35.3431H35.3482H35.3534H35.3585H35.3636H35.3687H35.3739H35.379H35.3841H35.3893H35.3944H35.3996H35.4047H35.4099H35.415H35.4201H35.4253H35.4304H35.4356H35.4407H35.4459H35.4511H35.4562H35.4614H35.4665H35.4717H35.4768H35.482H35.4871H35.4923H35.4975H35.5026H35.5078H35.5129H35.5181H35.5233H35.5284H35.5336H35.5387H35.5439H35.549H35.5542H35.5594H35.5645H35.5697H35.5748H35.58H35.5851H35.5903H35.5954H35.6006H35.6057H35.6109H35.616H35.6212H35.6263H35.6314H35.6366H35.6417H35.6468H35.652H35.6571H35.6622H35.6674H35.6725H35.6776H35.6827H35.6878H35.693H35.6981H35.7032H35.7083H35.7134H35.7185H35.7236H35.7287H35.7338H35.7389H35.7439H35.749H35.7541H35.7592H35.7642H35.7693H35.7744H35.7794H35.7845H35.7895H35.7946H35.7996H35.8047H35.8097H35.8147H35.8198H35.8248H35.8298H35.8348H35.8398H35.8448H35.8498H35.8548H35.8598H35.8648H35.8698H35.8748H35.8797H35.8847H35.8897H35.8946H35.8996H35.9045H35.9094H35.9144H35.9193H35.9242H35.9291H35.934H35.9389H35.9438H35.9487H35.9536H35.9585H35.9633H35.9682H35.9731H35.9779H35.9828H35.9876H35.9924H35.9972H36.0021H36.0069H36.0117H36.0165H36.0212H36.026H36.0308H36.0356H36.0403H36.0451H36.0498H36.0545H36.0593H36.064H36.0687H36.0734H36.0781H36.0828H36.0875H36.0921H36.0968H36.1014H36.1061H36.1107H36.1153H36.1199H36.1246H36.1292H36.1337H36.1383H36.1429H36.1475H36.152H36.1565H36.1611H36.1656H36.1701H36.1746H36.1791H36.1836H36.1881H36.1925H36.197H36.2014H36.2059H36.2103H36.2147H36.2191H36.2235H36.2279H36.2323H36.2366H36.241H36.2453H36.2496H36.254H36.2583H36.2626H36.2668H36.2711H36.2754H36.2796H36.2839H36.2881H36.2923H36.2965H36.3007H36.3049H36.309H36.3132H36.3173H36.3215H36.3256H36.3297H36.3338H36.3379H36.3419H36.346H36.35H36.3541H36.3581H36.3621H36.3661H36.3701H36.374H36.378H36.3819H36.3858H36.3897H36.3936H36.3975H36.4014H36.4053H36.4091H36.4129H36.4168H36.4206H36.4243H36.4281H36.4319H36.4356H36.4394H36.4431H36.4468H36.4505H36.4541H36.4578H36.4614H36.4651H36.4687H36.4723H36.4759H36.4794H36.483H36.4865H36.49H36.4935H36.497H36.5005H36.504H36.5074H36.5108H36.5143H36.5176H36.521H36.5244H36.5277H36.5311H36.5344H36.5377H36.541H36.5442H36.5475H36.5507H36.5539H36.5571H36.5603H36.5635H36.5666H36.5698H36.5729H36.576H36.579H36.5821H36.5851H36.5882H36.5912H36.5942H36.5971H36.6001H36.603H36.606H36.6089H36.6117H36.6146H36.6175H36.6203H36.6231H36.6259H36.6287H36.6314H36.6341H36.6369H36.6396H36.6422H36.6449H36.6475H36.6502H36.6528H36.6553H36.6579H36.6605H36.663H36.6655H36.668H36.6704H36.6729H36.6753H36.6777H36.6801H36.6825H36.6848H36.6871H36.6894H36.6917H36.694H36.6962H36.6985H36.7007H36.7028H36.705H36.7071H36.7093H36.7113H36.7134H36.7155H36.7175H36.7195H36.7215H36.7235H36.7254H36.7274H36.7293H36.7311H36.733H36.7348H36.7367H36.7385H36.7402H36.742H36.7437H36.7454H36.7471H36.7488H36.7504H36.752H36.7536H36.7552H36.7567H36.7582H36.7597H36.7612H36.7627H36.7641H36.7655H36.7669H36.7683H36.7696H36.7709H36.7722H36.7735H36.7747H36.7759H36.7771H36.7783H36.7795H36.7806H36.7817H36.7827H36.7838H36.7848H36.7858H36.7868H36.7878H36.7887H36.7896H36.7905H36.7913H36.7921H36.7929H36.7937H36.7945H36.7952H36.7959H36.7966H36.7972H36.7978H36.7984H36.799H36.7996H36.8001H36.8006H36.801H36.8015H36.8019H36.8023H36.8026H36.803H36.8033H36.8036H36.8038H36.8041H36.8043H36.8044H36.8046H36.8047H36.8048H36.8049H36.8049L36.8049 8.75V8Z" fill="white"/>
<path fill-rule="evenodd" clip-rule="evenodd" d="M22.6112 8C22.0312 8 21.2013 8.26519 20.4936 8.80642C19.7574 9.36938 19.1065 10.2676 19.0025 11.5506L19 11.5808V11.6112V15.5944V48.6385V48.675L19.0035 48.7114C19.0979 49.678 19.8733 51.6838 22.2331 52.1777L22.3091 52.1936H22.3868H25.6968H27.9409H30.4094V50.6936H27.9409H25.6968H22.4687C21.0521 50.3615 20.5692 49.1697 20.5 48.5981V15.5944V11.6434C20.5711 10.8663 20.9542 10.3425 21.4048 9.99795C21.8892 9.62752 22.4057 9.5 22.6112 9.5V8.75L22.6112 9.5H22.6113H22.6113H22.6114H22.6115H22.6117H22.6119H22.6121H22.6123H22.6126H22.6128H22.6132H22.6135H22.6139H22.6142H22.6147H22.6151H22.6156H22.6161H22.6166H22.6171H22.6177H22.6183H22.6189H22.6196H22.6202H22.6209H22.6217H22.6224H22.6232H22.624H22.6248H22.6257H22.6266H22.6275H22.6284H22.6293H22.6303H22.6313H22.6323H22.6334H22.6345H22.6356H22.6367H22.6378H22.639H22.6402H22.6414H22.6427H22.6439H22.6452H22.6465H22.6479H22.6492H22.6506H22.652H22.6535H22.6549H22.6564H22.6579H22.6594H22.661H22.6625H22.6641H22.6657H22.6674H22.669H22.6707H22.6724H22.6742H22.6759H22.6777H22.6795H22.6813H22.6831H22.685H22.6869H22.6888H22.6907H22.6927H22.6946H22.6966H22.6986H22.7007H22.7027H22.7048H22.7069H22.709H22.7111H22.7133H22.7155H22.7177H22.7199H22.7222H22.7244H22.7267H22.729H22.7313H22.7337H22.736H22.7384H22.7408H22.7433H22.7457H22.7482H22.7507H22.7532H22.7557H22.7582H22.7608H22.7634H22.766H22.7686H22.7712H22.7739H22.7766H22.7793H22.782H22.7847H22.7875H22.7903H22.793H22.7959H22.7987H22.8015H22.8044H22.8073H22.8102H22.8131H22.816H22.819H22.822H22.825H22.828H22.831H22.834H22.8371H22.8402H22.8433H22.8464H22.8495H22.8527H22.8558H22.859H22.8622H22.8654H22.8687H22.8719H22.8752H22.8785H22.8818H22.8851H22.8884H22.8917H22.8951H22.8985H22.9019H22.9053H22.9087H22.9122H22.9156H22.9191H22.9226H22.9261H22.9296H22.9332H22.9367H22.9403H22.9439H22.9475H22.9511H22.9547H22.9583H22.962H22.9657H22.9694H22.9731H22.9768H22.9805H22.9843H22.988H22.9918H22.9956H22.9994H23.0032H23.007H23.0109H23.0147H23.0186H23.0225H23.0264H23.0303H23.0342H23.0382H23.0421H23.0461H23.0501H23.0541H23.0581H23.0621H23.0661H23.0701H23.0742H23.0783H23.0824H23.0864H23.0906H23.0947H23.0988H23.1029H23.1071H23.1113H23.1154H23.1196H23.1238H23.1281H23.1323H23.1365H23.1408H23.145H23.1493H23.1536H23.1579H23.1622H23.1665H23.1708H23.1752H23.1795H23.1839H23.1882H23.1926H23.197H23.2014H23.2058H23.2103H23.2147H23.2191H23.2236H23.2281H23.2325H23.237H23.2415H23.246H23.2505H23.2551H23.2596H23.2641H23.2687H23.2732H23.2778H23.2824H23.287H23.2916H23.2962H23.3008H23.3054H23.3101H23.3147H23.3194H23.324H23.3287H23.3334H23.338H23.3427H23.3474H23.3522H23.3569H23.3616H23.3663H23.3711H23.3758H23.3806H23.3853H23.3901H23.3949H23.3997H23.4045H23.4093H23.4141H23.4189H23.4237H23.4285H23.4334H23.4382H23.4431H23.4479H23.4528H23.4577H23.4625H23.4674H23.4723H23.4772H23.4821H23.487H23.4919H23.4969H23.5018H23.5067H23.5116H23.5166H23.5215H23.5265H23.5314H23.5364H23.5414H23.5464H23.5513H23.5563H23.5613H23.5663H23.5713H23.5763H23.5813H23.5863H23.5913H23.5964H23.6014H23.6064H23.6115H23.6165H23.6216H23.6266H23.6317H23.6367H23.6418H23.6468H23.6519H23.657H23.662H23.6671H23.6722H23.6773H23.6824H23.6875H23.6926H23.6977H23.7028H23.7079H23.713H23.7181H23.7232H23.7283H23.7334H23.7385H23.7437H23.7488H23.7539H23.759H23.7642H23.7693H23.7744H23.7796H23.7847H23.7898H23.795H23.8001H23.8053H23.8104H23.8156H23.8207H23.8259H23.831H23.8362H23.8413H23.8465H23.8516H23.8568H23.8619H23.8671H23.8722H23.8774H23.8826H23.8877H23.8929H23.898H23.9032H23.9084H23.9135H23.9187H23.9238H23.929H23.9341H23.937V9.53543C23.937 9.81435 24.0352 10.1423 24.2676 10.4183C24.5153 10.7124 24.8825 10.909 25.3417 10.9549L25.3789 10.9587H25.4163H29.6801V10.9586H30.5216H30.8021V9.85708L31.1079 9.83556L31.0715 10.2752L32.418 10.4996L32.4792 10.5098H32.5413H33.9438H34.6938V9.75984V9.58328L35.9039 9.49815L35.8513 8H24.5748H24.5703H24.5658H24.5613H24.5567H24.5522H24.5476H24.5431H24.5385H24.5339H24.5294H24.5248H24.5202H24.5156H24.5109H24.5063H24.5017H24.497H24.4924H24.4877H24.483H24.4784H24.4737H24.469H24.4643H24.4596H24.4548H24.4501H24.4454H24.4406H24.4359H24.4311H24.4264H24.4216H24.4168H24.412H24.4072H24.4024H24.3976H24.3928H24.388H24.3831H24.3783H24.3734H24.3686H24.3637H24.3589H24.354H24.3491H24.3442H24.3393H24.3344H24.3295H24.3246H24.3197H24.3148H24.3099H24.3049H24.3H24.295H24.2901H24.2851H24.2802H24.2752H24.2702H24.2653H24.2603H24.2553H24.2503H24.2453H24.2403H24.2353H24.2303H24.2253H24.2203H24.2152H24.2102H24.2052H24.2001H24.1951H24.19H24.185H24.1799H24.1749H24.1698H24.1648H24.1597H24.1546H24.1495H24.1445H24.1394H24.1343H24.1292H24.1241H24.119H24.1139H24.1088H24.1037H24.0986H24.0935H24.0884H24.0833H24.0782H24.073H24.0679H24.0628H24.0577H24.0525H24.0474H24.0423H24.0371H24.032H24.0269H24.0217H24.0166H24.0114H24.0063H24.0011H23.996H23.9908H23.9857H23.9805H23.9754H23.9702H23.9651H23.9599H23.9548H23.9496H23.9445H23.9393H23.9341H23.929H23.9238H23.9187H23.9135H23.9084H23.9032H23.898H23.8929H23.8877H23.8826H23.8774H23.8722H23.8671H23.8619H23.8568H23.8516H23.8465H23.8413H23.8362H23.831H23.8259H23.8207H23.8156H23.8104H23.8053H23.8001H23.795H23.7898H23.7847H23.7796H23.7744H23.7693H23.7642H23.759H23.7539H23.7488H23.7437H23.7385H23.7334H23.7283H23.7232H23.7181H23.713H23.7079H23.7028H23.6977H23.6926H23.6875H23.6824H23.6773H23.6722H23.6671H23.662H23.657H23.6519H23.6468H23.6418H23.6367H23.6317H23.6266H23.6216H23.6165H23.6115H23.6064H23.6014H23.5964H23.5913H23.5863H23.5813H23.5763H23.5713H23.5663H23.5613H23.5563H23.5513H23.5464H23.5414H23.5364H23.5314H23.5265H23.5215H23.5166H23.5116H23.5067H23.5018H23.4969H23.4919H23.487H23.4821H23.4772H23.4723H23.4674H23.4625H23.4577H23.4528H23.4479H23.4431H23.4382H23.4334H23.4285H23.4237H23.4189H23.4141H23.4093H23.4045H23.3997H23.3949H23.3901H23.3853H23.3806H23.3758H23.3711H23.3663H23.3616H23.3569H23.3522H23.3474H23.3427H23.338H23.3334H23.3287H23.324H23.3194H23.3147H23.3101H23.3054H23.3008H23.2962H23.2916H23.287H23.2824H23.2778H23.2732H23.2687H23.2641H23.2596H23.2551H23.2505H23.246H23.2415H23.237H23.2325H23.2281H23.2236H23.2191H23.2147H23.2103H23.2058H23.2014H23.197H23.1926H23.1882H23.1839H23.1795H23.1752H23.1708H23.1665H23.1622H23.1579H23.1536H23.1493H23.145H23.1408H23.1365H23.1323H23.1281H23.1238H23.1196H23.1154H23.1113H23.1071H23.1029H23.0988H23.0947H23.0906H23.0864H23.0824H23.0783H23.0742H23.0701H23.0661H23.0621H23.0581H23.0541H23.0501H23.0461H23.0421H23.0382H23.0342H23.0303H23.0264H23.0225H23.0186H23.0147H23.0109H23.007H23.0032H22.9994H22.9956H22.9918H22.988H22.9843H22.9805H22.9768H22.9731H22.9694H22.9657H22.962H22.9583H22.9547H22.9511H22.9475H22.9439H22.9403H22.9367H22.9332H22.9296H22.9261H22.9226H22.9191H22.9156H22.9122H22.9087H22.9053H22.9019H22.8985H22.8951H22.8917H22.8884H22.8851H22.8818H22.8785H22.8752H22.8719H22.8687H22.8654H22.8622H22.859H22.8558H22.8527H22.8495H22.8464H22.8433H22.8402H22.8371H22.834H22.831H22.828H22.825H22.822H22.819H22.816H22.8131H22.8102H22.8073H22.8044H22.8015H22.7987H22.7959H22.793H22.7903H22.7875H22.7847H22.782H22.7793H22.7766H22.7739H22.7712H22.7686H22.766H22.7634H22.7608H22.7582H22.7557H22.7532H22.7507H22.7482H22.7457H22.7433H22.7408H22.7384H22.736H22.7337H22.7313H22.729H22.7267H22.7244H22.7222H22.7199H22.7177H22.7155H22.7133H22.7111H22.709H22.7069H22.7048H22.7027H22.7007H22.6986H22.6966H22.6946H22.6927H22.6907H22.6888H22.6869H22.685H22.6831H22.6813H22.6795H22.6777H22.6759H22.6742H22.6724H22.6707H22.669H22.6674H22.6657H22.6641H22.6625H22.661H22.6594H22.6579H22.6564H22.6549H22.6535H22.652H22.6506H22.6492H22.6479H22.6465H22.6452H22.6439H22.6427H22.6414H22.6402H22.639H22.6378H22.6367H22.6356H22.6345H22.6334H22.6323H22.6313H22.6303H22.6293H22.6284H22.6275H22.6266H22.6257H22.6248H22.624H22.6232H22.6224H22.6217H22.6209H22.6202H22.6196H22.6189H22.6183H22.6177H22.6171H22.6166H22.6161H22.6156H22.6151H22.6147H22.6142H22.6139H22.6135H22.6132H22.6128H22.6126H22.6123H22.6121H22.6119H22.6117H22.6115H22.6114H22.6113H22.6113H22.6112L22.6112 8.75V8Z" fill="white"/>
<path d="M29.875 34.25C28.8411 34.25 28 35.0911 28 36.125C28 37.1589 28.8411 38 29.875 38C30.9089 38 31.75 37.1589 31.75 36.125C31.75 35.0911 30.9089 34.25 29.875 34.25ZM29.875 37.0625C29.3581 37.0625 28.9375 36.6419 28.9375 36.125C28.9375 35.6081 29.3581 35.1875 29.875 35.1875C30.3919 35.1875 30.8125 35.6081 30.8125 36.125C30.8125 36.6419 30.3919 37.0625 29.875 37.0625Z" fill="white"/>
<path d="M29.875 22C27.1869 22 25 24.1869 25 26.875V27.3438H28.75V26.875C28.75 26.2547 29.2547 25.75 29.875 25.75C30.4953 25.75 31 26.2547 31 26.875C31 27.2056 30.8549 27.5184 30.6019 27.7335L28 29.9456V33.3125H31.75V31.6794L33.0305 30.5908C34.1233 29.6622 34.75 28.3079 34.75 26.875C34.75 24.1869 32.5631 22 29.875 22V22ZM32.4233 29.8765L30.8125 31.246V32.375H28.9375V30.379L31.209 28.4478C31.672 28.0544 31.9375 27.4811 31.9375 26.875C31.9375 25.7377 31.0123 24.8125 29.875 24.8125C28.8989 24.8125 28.079 25.4941 27.8662 26.4062H25.9652C26.1977 24.4553 27.8625 22.9375 29.875 22.9375C32.0462 22.9375 33.8125 24.7038 33.8125 26.875C33.8125 28.0323 33.3062 29.1262 32.4233 29.8765Z" fill="white"/>
</svg>
