<svg width="60" height="60" viewBox="0 0 60 60" fill="none" xmlns="http://www.w3.org/2000/svg">
<rect width="60" height="60" rx="13" fill="#0D68E0"/>
<path d="M46.936 26.25L47.0354 32.125H46.9856L45.2971 26.25H42.5158V33.6499H44.3533L44.2541 27.5751H44.3039L46.1165 33.6499H48.7737V26.25H46.936ZM11.9465 26.25L10.5559 33.7252H12.5674L13.5856 26.9251H13.6352L14.6286 33.7249H16.6152L15.2493 26.25H11.9465ZM23.1709 26.25L22.2522 31.95H22.2024L21.2837 26.25H18.2541L18.105 33.7252H19.9675L20.0173 26.9999H20.042L21.2835 33.7249H23.1709L24.4126 27.0001H24.4624L24.5118 33.7249H26.3743L26.2005 26.25H23.1709ZM7.42702 31.6C7.50133 31.7749 7.47663 32.0251 7.45172 32.1501C7.4021 32.4 7.22833 32.65 6.73152 32.65C6.25983 32.65 5.98662 32.3752 5.98662 31.9749V31.2501H4V31.8251C4 33.5001 5.31603 34 6.70682 34C8.04777 34 9.16512 33.5249 9.3391 32.2999C9.43833 31.6499 9.3638 31.225 9.3391 31.0749C8.99135 29.5001 6.1606 29.0501 5.9617 28.1749C5.937 28.0249 5.937 27.875 5.9617 27.7749C6.01153 27.5249 6.1853 27.2749 6.63228 27.2749C7.07927 27.2749 7.32778 27.5498 7.32778 27.95V28.4H9.19003V27.875C9.19003 26.25 7.72493 26 6.6819 26C5.36587 26 4.27322 26.45 4.07453 27.6499C4.0247 27.9749 4 28.2751 4.09923 28.65C4.39737 30.2 7.05457 30.65 7.4268 31.6H7.42702ZM31.5895 31.6C31.6638 31.7751 31.6389 32 31.6142 32.1501C31.5643 32.4 31.3906 32.65 30.894 32.65C30.4221 32.65 30.1491 32.3752 30.1491 31.9749V31.2501H28.1622V31.8251C28.1622 33.475 29.4536 33.9751 30.8444 33.9751C32.1853 33.9751 33.278 33.5251 33.4517 32.2751C33.5512 31.625 33.4766 31.225 33.4517 31.0501C33.1538 29.5001 30.3475 29.025 30.1491 28.1752C30.1242 28.0251 30.1242 27.875 30.1491 27.7749C30.1987 27.5249 30.3724 27.2749 30.8194 27.2749C31.2415 27.2749 31.5149 27.5498 31.5149 27.95V28.4H33.3523V27.875C33.3523 26.25 31.9121 26 30.8693 26C29.553 26 28.4851 26.4249 28.2866 27.6499C28.2368 27.9749 28.2368 28.2751 28.3113 28.65C28.6094 30.2 31.2168 30.6249 31.5895 31.6ZM37.8472 32.6001C38.3688 32.6001 38.5176 32.25 38.5672 32.05C38.5921 31.9751 38.5921 31.8499 38.5921 31.7751V26.25H40.4793V31.625C40.4793 31.7751 40.4793 32.05 40.4546 32.125C40.3304 33.5251 39.2378 33.9751 37.8719 33.9751C36.5063 33.9751 35.4136 33.5251 35.2893 32.125C35.2893 32.05 35.2646 31.7751 35.2646 31.625V26.25H37.1517V31.7751C37.1517 31.875 37.1517 31.9749 37.1767 32.05C37.1767 32.25 37.3257 32.6001 37.8472 32.6001ZM53.3428 32.525C53.8892 32.525 54.063 32.1749 54.1126 31.9749C54.1375 31.9001 54.1375 31.7749 54.1375 31.7001V30.6249H53.3677V29.5249H56V31.5251C56 31.675 56 31.7749 55.9751 32.0251C55.8509 33.3999 54.6838 33.875 53.3677 33.875C52.0515 33.875 50.8845 33.3999 50.7603 32.0251C50.7354 31.7749 50.7354 31.675 50.7354 31.5249V28.3752C50.7354 28.25 50.7603 28 50.7603 27.875C50.9341 26.4749 52.0517 26.0249 53.3677 26.0249C54.6838 26.0249 55.8262 26.4749 55.9751 27.875C56 28.0999 56 28.375 56 28.375V28.6249H54.1375V28.2C54.1375 28.2 54.1375 28.0249 54.1126 27.925C54.0879 27.75 53.9389 27.3751 53.3677 27.3751C52.8215 27.3751 52.6722 27.7249 52.6228 27.925C52.5979 28.0249 52.5979 28.1501 52.5979 28.2751V31.7001C52.5979 31.8 52.5979 31.8999 52.6228 31.9749C52.6228 32.1749 52.8215 32.525 53.3428 32.525Z" fill="white"/>
</svg>
