<svg width="60" height="60" viewBox="0 0 60 60" fill="none" xmlns="http://www.w3.org/2000/svg">
<rect width="60" height="60" rx="13" fill="#0D68E0"/>
<path d="M22.2379 34.9999C20.2817 34.9999 18.4659 34.3829 17.2538 33.2386C16.3381 32.374 15.8981 31.1997 15.8981 29.9911C15.8981 28.7972 16.3571 27.6148 17.2537 26.7548C18.3794 25.6758 20.3667 25 22.2379 25C24.3085 25 25.9658 25.5486 27.2328 26.7578C28.1342 27.6182 28.57 28.7954 28.57 29.9912C28.57 31.1503 28.1075 32.3847 27.2328 33.2386C26.053 34.3903 24.199 34.9999 22.2379 34.9999V33.681C23.2761 33.681 24.2392 33.3039 24.9119 32.6C25.5798 31.9008 25.891 31.0414 25.891 29.9911C25.891 28.9849 25.5553 28.0442 24.9119 27.377C24.2482 26.6895 23.2621 26.3026 22.2379 26.3026C21.2105 26.3026 20.2237 26.6855 19.5596 27.377C18.9196 28.044 18.583 28.9874 18.583 29.9911C18.583 30.9917 18.9235 31.9346 19.5596 32.6001C20.2243 33.2956 21.2075 33.6811 22.2379 33.6811V35V34.9999ZM7.94046 25.0048C6.89407 25.0048 5.70531 25.2107 4.69525 25.6851C3.76305 26.1226 3 26.8302 3 28.0033C2.99957 29.0597 3.63792 29.6785 3.62057 29.6614C3.89208 29.9243 4.32918 30.3719 5.47196 30.6348C5.98269 30.7523 7.07462 30.9327 8.16199 31.0523C9.24134 31.172 10.3036 31.2858 10.7362 31.401C11.0799 31.4931 11.6573 31.6184 11.6573 32.2998C11.6573 32.9784 11.049 33.1855 10.9433 33.2305C10.8377 33.2744 10.1079 33.6266 8.79611 33.6266C7.82758 33.6266 6.66322 33.3202 6.23881 33.1605C5.74955 32.9774 5.23634 32.7351 4.7576 32.12C4.63854 31.9675 4.45074 31.5482 4.45074 31.1329H3.26349V34.6321H4.58313V34.1593C4.58313 34.1055 4.64711 33.8841 4.86864 33.9894C5.14428 34.1211 5.95341 34.46 6.79941 34.6457C7.49306 34.7984 7.94035 34.9077 8.80272 34.9077C10.2098 34.9077 10.9657 34.6666 11.4882 34.5097C11.9805 34.3614 12.5888 34.0952 13.0829 33.6807C13.3505 33.4566 13.9374 32.8821 13.9374 31.8393C13.9374 30.8384 13.4267 30.2172 13.247 30.0282C13.0023 29.7706 12.7033 29.571 12.3918 29.4172C12.1204 29.2828 11.692 29.1214 11.3416 29.0312C10.6614 28.8556 9.12336 28.6389 8.38786 28.5579C7.61657 28.4732 6.2786 28.3566 5.74424 28.1827C5.58224 28.1299 5.25195 27.9644 5.25195 27.5611C5.25195 27.2742 5.403 27.0311 5.70152 26.8346C6.17537 26.5223 7.13252 26.3282 8.13022 26.3282C9.30976 26.3236 10.3087 26.6072 10.9441 26.9061C11.1602 27.0076 11.413 27.1533 11.6139 27.3258C11.8405 27.5201 12.1586 27.924 12.2737 28.4873H13.3396V25.4414H12.1494V25.7954C12.1494 25.9097 12.0372 26.0582 11.825 25.9355C11.2924 25.6416 9.78643 25.0074 7.94024 25.0048H7.94046ZM34.0225 25.5583L39.8282 31.0694L39.7686 27.3589C39.7627 26.8723 39.6775 26.6692 39.1772 26.6692H38.0856V25.5592H43.0497V26.6692H41.9849C41.4746 26.6692 41.4424 26.8408 41.4362 27.3589L41.5262 34.4488H39.8262L33.139 28.1713L33.1405 32.6264C33.1463 33.1107 33.1679 33.3388 33.6423 33.3388H34.8345V34.4483H29.9593V33.3389H31.099C31.5247 33.3389 31.5078 32.912 31.5078 32.6012V27.4011C31.5078 27.0654 31.463 26.67 30.7946 26.67H29.8699V25.5583H34.0225ZM48.7222 33.3368C48.7688 33.3368 48.9759 33.3305 49.016 33.3176C49.0665 33.3016 49.1131 33.2742 49.1525 33.2374C49.1919 33.2005 49.2233 33.1551 49.2444 33.1043C49.2596 33.0667 49.2672 32.9002 49.2672 32.864L49.268 31.1099C49.268 31.0677 49.2651 31.0494 49.197 30.9554C49.1222 30.8528 46.156 27.3171 46.0202 27.1614C45.8516 26.9681 45.5556 26.6693 45.1058 26.6693H44.0743V25.5589H49.8957V26.6679H49.194C49.0316 26.6679 48.9237 26.8299 49.0624 27.0099C49.0624 27.0099 51.0211 29.4742 51.0396 29.5C51.0578 29.5262 51.0734 29.5325 51.0984 29.5085C51.1229 29.484 53.1061 27.0324 53.1218 27.013C53.2161 26.8942 53.1521 26.6692 52.9488 26.6692H52.2289V25.5589H57V26.6692H55.9341C55.5474 26.6692 55.3901 26.7445 55.0992 27.0904C54.9661 27.2487 51.9682 30.8479 51.8867 30.9454C51.844 30.9964 51.8477 31.0674 51.8477 31.1096V32.8635C51.8477 32.8991 51.8553 33.0659 51.8704 33.1033C51.8915 33.1542 51.9229 33.1997 51.9625 33.2365C52.002 33.2733 52.0486 33.3006 52.0992 33.3166C52.1394 33.3296 52.3436 33.336 52.3902 33.336H53.4805V34.4462H47.689V33.3358L48.7224 33.3368H48.7222Z" fill="white"/>
</svg>
