<svg width="60" height="60" viewBox="0 0 60 60" fill="none" xmlns="http://www.w3.org/2000/svg">
<rect width="60" height="60" rx="13" fill="#0D68E0"/>
<path d="M42.0218 11H18.3783C16.5128 11 15 12.5123 15 14.3777V45.6224C15 47.4878 16.5127 49.0001 18.3783 49.0001H42.0217C43.887 49.0001 45.3998 47.488 45.3998 45.6224V14.3775C45.3998 12.5122 43.887 11 42.0218 11ZM44.1158 45C44.1158 45.6574 43.2709 47.5 42.0217 47.5H18C17.2111 47.5 16.2403 45.4069 16.2403 45V28.4003V14.6187C16.2403 14.2117 16.7005 12.293 18.3783 12.293H42.0218C43.5898 12.293 44.1158 14.2117 44.1158 14.6187V28.4003V45Z" fill="white"/>
<g clip-path="url(#clip0)">
<path d="M31.1359 23.5126C30.9735 23.4351 30.7821 23.4557 30.6421 23.5686L26.1024 27.2002H23.9333C23.4191 27.2002 23 27.6193 23 28.1335V31.8669C23 32.3811 23.4191 32.8002 23.9333 32.8002H26.1024L30.6412 36.4318C30.7261 36.499 30.8297 36.5335 30.9333 36.5335C31.0024 36.5335 31.0715 36.5186 31.1359 36.4878C31.2973 36.4094 31.4 36.2461 31.4 36.0669V23.9335C31.4 23.7543 31.2973 23.591 31.1359 23.5126ZM25.8 31.8669H23.9333V28.1335H25.8V31.8669ZM30.4667 35.0953L26.7333 32.1086V27.8918L30.4667 24.9051V35.0953Z" fill="white"/>
<path d="M33.7632 26.7C33.5794 26.518 33.2844 26.5208 33.1034 26.7037C32.9223 26.8876 32.9242 27.1825 33.1071 27.3636C33.8118 28.0608 34.2 28.9969 34.2 30.0003C34.2 31.0036 33.8118 31.9397 33.1071 32.6369C32.9232 32.818 32.9214 33.1129 33.1034 33.2968C33.1948 33.3892 33.3152 33.4349 33.4347 33.4349C33.5532 33.4349 33.6718 33.3901 33.7632 33.2996C34.6471 32.4269 35.1334 31.2556 35.1334 30.0003C35.1334 28.7449 34.6471 27.5736 33.7632 26.7Z" fill="white"/>
<path d="M35.0792 25.385C34.8962 25.2039 34.6004 25.2048 34.4193 25.3878C34.2382 25.5707 34.2392 25.8666 34.4221 26.0476C35.4824 27.0995 36.0666 28.5032 36.0666 30.0003C36.0666 31.4974 35.4824 32.9011 34.4221 33.953C34.2392 34.134 34.2382 34.4299 34.4193 34.6129C34.5108 34.7052 34.6302 34.751 34.7506 34.751C34.8692 34.751 34.9877 34.7062 35.0792 34.6156C36.3177 33.3874 37 31.7484 37 30.0003C37 28.2522 36.3177 26.6132 35.0792 25.385Z" fill="white"/>
</g>
<path d="M22 22L37.5 37.5" stroke="white"/>
<defs>
<clipPath id="clip0">
<rect width="14" height="14" fill="white" transform="translate(23 23)"/>
</clipPath>
</defs>
</svg>
