<svg width="60" height="60" viewBox="0 0 60 60" fill="none" xmlns="http://www.w3.org/2000/svg">
<rect width="60" height="60" rx="13" fill="#0D68E0"/>
<path d="M42.0218 11H18.3783C16.5128 11 15 12.5123 15 14.3777V45.6224C15 47.4878 16.5127 49.0001 18.3783 49.0001H42.0217C43.887 49.0001 45.3998 47.488 45.3998 45.6224V14.3775C45.3998 12.5122 43.887 11 42.0218 11ZM44.1158 45C44.1158 45.6574 43.2709 47.5 42.0217 47.5H18C17.2111 47.5 16.2403 45.4069 16.2403 45V28.4003V14.6187C16.2403 14.2117 16.7005 12.293 18.3783 12.293H42.0218C43.5898 12.293 44.1158 14.2117 44.1158 14.6187V28.4003V45Z" fill="white"/>
<path d="M37.8558 25.0175C37.5198 24.6403 37.0558 24.4175 36.5278 24.4175H33.8719V24.3832C33.8719 23.9546 33.7119 23.5432 33.4399 23.2689C33.1679 22.9775 32.7999 22.8061 32.3999 22.8061H27.6001C27.1841 22.8061 26.8161 22.9775 26.5441 23.2689C26.2721 23.5604 26.1121 23.9546 26.1121 24.3832V24.4175H23.4722C22.9442 24.4175 22.4802 24.6403 22.1442 25.0175C21.8082 25.3775 21.5842 25.8917 21.5842 26.4403V34.9772C21.5842 35.5429 21.7922 36.04 22.1442 36.4C22.4802 36.76 22.9602 37 23.4722 37H36.5278C37.0558 37 37.5198 36.7772 37.8558 36.4C38.1918 36.04 38.4158 35.5258 38.4158 34.9772V26.4403C38.4158 25.8746 38.2078 25.3775 37.8558 25.0175ZM37.5838 34.9772H37.5678C37.5678 35.2858 37.4558 35.56 37.2638 35.7658C37.0718 35.9715 36.8158 36.0915 36.5278 36.0915H23.4722C23.1842 36.0915 22.9282 35.9715 22.7362 35.7658C22.5442 35.56 22.4322 35.2858 22.4322 34.9772V26.4403C22.4322 26.1317 22.5442 25.8574 22.7362 25.6517C22.9282 25.446 23.1842 25.326 23.4722 25.326H26.5601C26.8001 25.326 26.9921 25.1203 26.9921 24.8632V24.3661C26.9921 24.1775 27.0561 24.0061 27.1681 23.8861C27.2801 23.7661 27.4401 23.6975 27.6161 23.6975H32.3999C32.5759 23.6975 32.7359 23.7661 32.8479 23.8861C32.9599 24.0061 33.0239 24.1775 33.0239 24.3661V24.8632C33.0239 25.1203 33.2159 25.326 33.4559 25.326H36.5438C36.8318 25.326 37.0878 25.446 37.2798 25.6517C37.4718 25.8574 37.5838 26.1317 37.5838 26.4403V34.9772Z" fill="white"/>
<path d="M30 26.4919C28.912 26.4919 27.92 26.9719 27.2161 27.7261C26.4961 28.4975 26.0641 29.5432 26.0641 30.7089C26.0641 31.8746 26.5121 32.9374 27.2161 33.6917C27.936 34.4631 28.912 34.926 30 34.926C31.088 34.926 32.0799 34.446 32.7839 33.6917C33.5039 32.9203 33.9359 31.8746 33.9359 30.7089C33.9359 29.5432 33.4879 28.4804 32.7839 27.7261C32.0799 26.9719 31.088 26.4919 30 26.4919ZM32.1759 33.0574C31.6159 33.6403 30.848 34.0174 30 34.0174C29.152 34.0174 28.384 33.6403 27.824 33.0574C27.2641 32.4574 26.9281 31.6346 26.9281 30.7261C26.9281 29.8175 27.2801 28.9947 27.824 28.3947C28.384 27.7947 29.152 27.4347 30 27.4347C30.848 27.4347 31.6159 27.8118 32.1759 28.3947C32.7359 28.9947 33.0719 29.8175 33.0719 30.7261C33.0879 31.6346 32.7359 32.4574 32.1759 33.0574Z" fill="white"/>
<path d="M35.696 28.1545C36.1289 28.1545 36.4799 27.7784 36.4799 27.3145C36.4799 26.8506 36.1289 26.4745 35.696 26.4745C35.263 26.4745 34.912 26.8506 34.912 27.3145C34.912 27.7784 35.263 28.1545 35.696 28.1545Z" fill="white"/>
<path d="M21 21L39 39" stroke="white"/>
</svg>
