<svg width="60" height="60" viewBox="0 0 60 60" fill="none" xmlns="http://www.w3.org/2000/svg">
<rect width="60" height="60" rx="13" fill="#0D68E0"/>
<path d="M42.0218 11H18.3783C16.5128 11 15 12.5123 15 14.3777V45.6224C15 47.4878 16.5127 49.0001 18.3783 49.0001H42.0217C43.887 49.0001 45.3998 47.488 45.3998 45.6224V14.3775C45.3998 12.5122 43.887 11 42.0218 11ZM44.1158 45C44.1158 45.6574 43.2709 47.5 42.0217 47.5H18C17.2111 47.5 16.2403 45.4069 16.2403 45V28.4003V14.6187C16.2403 14.2117 16.7005 12.293 18.3783 12.293H42.0218C43.5898 12.293 44.1158 14.2117 44.1158 14.6187V28.4003V45Z" fill="white"/>
<path d="M32.4736 24.3389C32.151 24.2156 31.7898 24.377 31.6665 24.6994C31.5433 25.0218 31.7047 25.3831 32.027 25.5064C34.2363 26.3512 35.7639 28.4808 35.7639 30.9375C35.7639 34.1426 33.1564 36.75 29.9514 36.75C26.7464 36.75 24.1389 34.1426 24.1389 30.9375C24.1389 28.4794 25.6673 26.3511 27.8756 25.5065C28.198 25.3832 28.3594 25.0218 28.2361 24.6995C28.1127 24.3771 27.7513 24.2157 27.429 24.339C24.7384 25.3681 22.8889 27.9592 22.8889 30.9375C22.8889 34.8413 26.048 38 29.9514 38C33.8552 38 37.0139 34.841 37.0139 30.9375C37.0139 27.9578 35.1632 25.3675 32.4736 24.3389Z" fill="white"/>
<path d="M30 22C29.6548 22 29.375 22.2798 29.375 22.625V28.7453C29.375 29.0905 29.6548 29.3703 30 29.3703C30.3452 29.3703 30.625 29.0905 30.625 28.7453V22.625C30.625 22.2798 30.3452 22 30 22Z" fill="white"/>
<path d="M22 23L37 38" stroke="white"/>
</svg>
