<svg width="60" height="60" viewBox="0 0 60 60" fill="none" xmlns="http://www.w3.org/2000/svg">
<rect width="60" height="60" rx="13" fill="#0D68E0"/>
<path d="M42.0218 11H18.3783C16.5128 11 15 12.5123 15 14.3777V45.6224C15 47.4878 16.5127 49.0001 18.3783 49.0001H42.0217C43.887 49.0001 45.3998 47.488 45.3998 45.6224V14.3775C45.3998 12.5122 43.887 11 42.0218 11ZM44.1158 45C44.1158 45.6574 43.2709 47.5 42.0217 47.5H18C17.2111 47.5 16.2403 45.4069 16.2403 45V28.4003V14.6187C16.2403 14.2117 16.7005 12.293 18.3783 12.293H42.0218C43.5898 12.293 44.1158 14.2117 44.1158 14.6187V28.4003V45Z" fill="white"/>
<path d="M31.7852 22.764C31.4388 22.2206 31.1332 21.7208 30.8479 21.2643C30.8071 21.1991 30.746 21.1339 30.6849 21.0905C30.4404 20.9166 30.1144 21.0035 29.9514 21.2643C29.6865 21.7208 29.3808 22.1989 29.0141 22.764C27.4044 25.2852 25 29.0887 25 31.2621C25 32.8487 25.6113 34.2832 26.5893 35.3264C27.5674 36.348 28.9122 37 30.3996 37C31.8871 37 33.2319 36.348 34.2099 35.3047C35.188 34.2615 35.7992 32.827 35.7992 31.2404C35.7992 29.067 33.3949 25.2852 31.7852 22.764ZM33.4764 34.5223C32.6817 35.3699 31.6018 35.8698 30.3996 35.8698C29.1974 35.8698 28.1175 35.3482 27.3229 34.5223C26.5282 33.6746 26.0595 32.5227 26.0595 31.2404C26.0595 29.4147 28.362 25.7851 29.8902 23.3726C30.0736 23.09 30.2366 22.8075 30.3996 22.5684C30.5626 22.8075 30.7256 23.09 30.909 23.3726C32.4372 25.8068 34.7397 29.4147 34.7397 31.2404C34.7397 32.5227 34.2507 33.6746 33.4764 34.5223Z" fill="white"/>
<path d="M33.5578 30.8493C33.2726 30.8275 33.0281 31.0666 33.0077 31.3709C32.9873 31.8491 32.8447 32.3055 32.6206 32.6967C32.3964 33.0879 32.0704 33.4357 31.6833 33.653C31.4387 33.8051 31.3369 34.1529 31.4795 34.4137C31.6425 34.718 31.9685 34.8049 32.213 34.6528C32.7632 34.3268 33.2115 33.8486 33.5171 33.3053C33.8431 32.7619 34.0265 32.1099 34.0469 31.4361C34.0672 31.1318 33.8431 30.871 33.5578 30.8493Z" fill="white"/>
</svg>
