<svg width="60" height="60" viewBox="0 0 60 60" fill="none" xmlns="http://www.w3.org/2000/svg">
<rect width="60" height="60" rx="13" fill="#0D68E0"/>
<path d="M42.0218 11H18.3783C16.5128 11 15 12.5123 15 14.3777V45.6224C15 47.4878 16.5127 49.0001 18.3783 49.0001H42.0217C43.887 49.0001 45.3998 47.488 45.3998 45.6224V14.3775C45.3998 12.5122 43.887 11 42.0218 11ZM44.1158 45C44.1158 45.6574 43.2709 47.5 42.0217 47.5H18C17.2111 47.5 16.2403 45.4069 16.2403 45V28.4003V14.6187C16.2403 14.2117 16.7005 12.293 18.3783 12.293H42.0218C43.5898 12.293 44.1158 14.2117 44.1158 14.6187V28.4003V45Z" fill="white"/>
<path d="M41.25 11L38.9071 16.028C38.8228 16.2089 38.6863 16.3605 38.5152 16.4632L32.8744 19.8476C32.5732 20.0283 32.3889 20.3539 32.3889 20.7051V25.25M32.3889 25.25L34.3056 29.0834M32.3889 25.25L28.1722 27.3584C27.6782 27.6054 27.0776 27.4051 26.8306 26.9112L26 25.25M34.3056 29.0834L36.8611 35.4723M34.3056 29.0834L29.8333 35.4723" stroke="white"/>
</svg>
