<svg width="60" height="60" viewBox="0 0 60 60" fill="none" xmlns="http://www.w3.org/2000/svg">
<rect width="60" height="60" rx="13" fill="#0D68E0"/>
<path d="M22 21L39 38" stroke="white"/>
<path d="M24.3892 28.966C24.0255 29.3297 24.0255 29.9217 24.3892 30.2889C24.7529 30.6526 25.3449 30.6526 25.7121 30.2889C28.2296 27.7715 32.3266 27.7715 34.8441 30.2889C35.0259 30.4708 35.2648 30.5635 35.5037 30.5635C35.7426 30.5635 35.9815 30.4708 36.1634 30.2889C36.5271 29.9252 36.5271 29.3333 36.1634 28.966C32.9185 25.7176 27.6341 25.7176 24.3892 28.966Z" fill="white"/>
<path d="M26.9138 31.4907C26.5501 31.8544 26.5501 32.4463 26.9138 32.8136C27.2775 33.1773 27.8694 33.1773 28.2367 32.8136C29.3599 31.6868 31.1927 31.6868 32.3159 32.8136C32.4978 32.9955 32.7367 33.0882 32.9756 33.0882C33.2145 33.0882 33.4534 32.9955 33.6352 32.8136C33.9989 32.4499 33.9989 31.858 33.6352 31.4943C31.7846 29.6365 28.768 29.6365 26.9138 31.4907Z" fill="white"/>
<path d="M30.2764 36.0941C30.9637 36.0941 31.5209 35.5369 31.5209 34.8496C31.5209 34.1623 30.9637 33.6052 30.2764 33.6052C29.5891 33.6052 29.032 34.1623 29.032 34.8496C29.032 35.5369 29.5891 36.0941 30.2764 36.0941Z" fill="white"/>
<path d="M38.7272 26.3987C34.0668 21.7418 26.486 21.7418 21.8255 26.3987C21.4618 26.7624 21.4618 27.3544 21.8255 27.7216C22.1892 28.0853 22.7811 28.0853 23.1484 27.7216C27.0779 23.7886 33.4749 23.7886 37.4079 27.7216C37.5898 27.9035 37.8287 27.9962 38.0676 27.9962C38.3065 27.9962 38.5454 27.9035 38.7272 27.7216C39.0909 27.3579 39.0909 26.766 38.7272 26.3987Z" fill="white"/>
<path d="M42.0218 11H18.3783C16.5128 11 15 12.5123 15 14.3777V45.6224C15 47.4878 16.5127 49.0001 18.3783 49.0001H42.0217C43.887 49.0001 45.3998 47.488 45.3998 45.6224V14.3775C45.3998 12.5122 43.887 11 42.0218 11ZM44.1158 45C44.1158 45.6574 43.2709 47.5 42.0217 47.5H18C17.2111 47.5 16.2403 45.4069 16.2403 45V28.4003V14.6187C16.2403 14.2117 16.7005 12.293 18.3783 12.293H42.0218C43.5898 12.293 44.1158 14.2117 44.1158 14.6187V28.4003V45Z" fill="white"/>
</svg>
