<svg width="60" height="60" viewBox="0 0 60 60" fill="none" xmlns="http://www.w3.org/2000/svg">
<rect width="60" height="60" rx="13" fill="#0D68E0"/>
<path d="M42.0218 11H18.3783C16.5128 11 15 12.5123 15 14.3777V45.6224C15 47.4878 16.5127 49.0001 18.3783 49.0001H42.0217C43.887 49.0001 45.3998 47.488 45.3998 45.6224V14.3775C45.3998 12.5122 43.887 11 42.0218 11ZM44.1158 45C44.1158 45.6574 43.2709 47.5 42.0217 47.5H18C17.2111 47.5 16.2403 45.4069 16.2403 45V28.4003V14.6187C16.2403 14.2117 16.7005 12.293 18.3783 12.293H42.0218C43.5898 12.293 44.1158 14.2117 44.1158 14.6187V28.4003V45Z" fill="white"/>
<path d="M33.3481 40H25.7769C24.7971 40 24 39.1939 24 38.2031V24.2969C24 23.3061 24.7971 22.5 25.7769 22.5H33.3481C34.3279 22.5 35.125 23.3061 35.125 24.2969V38.2031C35.125 39.1939 34.3279 40 33.3481 40ZM25.7769 23.75C25.4787 23.75 25.2361 23.9953 25.2361 24.2969V38.2031C25.2361 38.5047 25.4787 38.75 25.7769 38.75H33.3481C33.6463 38.75 33.8889 38.5047 33.8889 38.2031V24.2969C33.8889 23.9953 33.6463 23.75 33.3481 23.75H25.7769Z" fill="white"/>
<path d="M32.0347 23.75H27.0902C26.7489 23.75 26.4722 23.4702 26.4722 23.125V21.4062C26.4722 20.6308 27.096 20 27.8628 20H31.2621C32.0289 20 32.6527 20.6308 32.6527 21.4062V23.125C32.6527 23.4702 32.376 23.75 32.0347 23.75ZM27.7083 22.5H31.4166V21.4062C31.4166 21.3201 31.3473 21.25 31.2621 21.25H27.8628C27.7776 21.25 27.7083 21.3201 27.7083 21.4062V22.5Z" fill="white"/>
<path d="M32.0347 37.8125H27.0902C26.7489 37.8125 26.4722 37.5327 26.4722 37.1875C26.4722 36.8423 26.7489 36.5625 27.0902 36.5625H32.0347C32.376 36.5625 32.6527 36.8423 32.6527 37.1875C32.6527 37.5327 32.376 37.8125 32.0347 37.8125Z" fill="white"/>
<path d="M32.0347 35.3125H27.0902C26.7489 35.3125 26.4722 35.0327 26.4722 34.6875C26.4722 34.3423 26.7489 34.0625 27.0902 34.0625H32.0347C32.376 34.0625 32.6527 34.3423 32.6527 34.6875C32.6527 35.0327 32.376 35.3125 32.0347 35.3125Z" fill="white"/>
<path d="M32.0347 32.8125H27.0902C26.7489 32.8125 26.4722 32.5327 26.4722 32.1875C26.4722 31.8423 26.7489 31.5625 27.0902 31.5625H32.0347C32.376 31.5625 32.6527 31.8423 32.6527 32.1875C32.6527 32.5327 32.376 32.8125 32.0347 32.8125Z" fill="white"/>
<path d="M22 23L37.5 38.5" stroke="white"/>
</svg>
