<svg width="60" height="60" viewBox="0 0 60 60" fill="none" xmlns="http://www.w3.org/2000/svg">
<rect width="60" height="60" rx="13" fill="#0D68E0"/>
<path d="M14.6415 26C12.2452 26 11.091 26.4092 10.929 28.512C10.893 29.0072 10.8765 29.5036 10.8795 30C10.8795 30.477 10.8885 30.9869 10.9268 31.488C11.091 33.5886 12.2452 34 14.6392 34C17.0355 34 18.1943 33.5886 18.3585 31.488C18.399 30.9869 18.408 30.477 18.408 30C18.408 29.5252 18.3968 29.0131 18.3585 28.512C18.1943 26.4114 17.0355 26 14.6415 26ZM23.169 26C22.2465 26 21.324 26.0875 20.9528 26.2648C20.2283 26.6061 19.7265 27.0963 19.7265 28.4967C19.7265 29.3173 19.9515 29.9278 20.3857 30.2385C21.018 30.698 21.63 30.7418 23.3333 30.8293C24.0195 30.8643 24.3908 31 24.3908 31.5733C24.3908 32.2998 23.7292 32.2998 23.1217 32.2998C22.4917 32.2998 22.2983 32.2451 22.0868 32.0897C21.8977 31.9519 21.8505 31.7046 21.8482 31.3282H19.7108C19.7108 32.3939 19.7332 33.2626 20.7682 33.7002C21.6908 34.0941 24.5257 34.0941 25.3762 33.7309C26.1143 33.4136 26.643 32.9934 26.643 31.5558C26.643 30.5602 26.4382 29.9475 25.653 29.4967C25.095 29.1751 23.5268 29.1247 22.7325 29.0766C22.152 29.0416 21.9315 28.8359 21.9315 28.337C21.9315 27.6871 22.5728 27.663 23.124 27.663C23.5785 27.663 23.889 27.7024 24.1118 27.8928C24.1973 27.9781 24.3053 28.1094 24.3097 28.5646H26.4405C26.4405 27.6718 26.409 26.709 25.4167 26.2648C25.023 26.0897 24.096 26 23.1712 26H23.169ZM28.1325 26.1357V33.8643H30.3735V30.884H32.9745V33.8643H35.2155V26.1357H32.9745V28.9584H30.3735V26.1357H28.1325ZM37.1842 26.1357V33.8643H39.4388V26.1357H37.1842ZM41.439 26.1357V33.8643H45.6848C47.64 33.8643 48.2992 33.0416 48.2992 31.7812C48.2992 30.9037 48.0923 30.1291 46.8525 29.8249C47.8515 29.5755 48.144 28.9956 48.144 28.1575C48.144 26.4595 47.0482 26.1357 45.4867 26.1357H41.439ZM51.2783 26.1357L48.8753 33.8643H51.2085L51.6293 32.4311H54.2393L54.6667 33.8643H57L54.5925 26.1357H51.2783ZM3 26.14V28.0678H5.37375V33.8665H7.7475V28.0678H10.1213V26.1422H3V26.14ZM14.6415 27.8074C15.582 27.8074 16.0658 27.9453 16.1265 29.1357C16.1355 29.3217 16.149 29.5755 16.149 30C16.149 30.4267 16.1355 30.6783 16.1265 30.8643C16.0658 32.0547 15.582 32.1926 14.6415 32.1926C13.701 32.1926 13.2172 32.0547 13.1565 30.8643C13.1429 30.5764 13.1369 30.2882 13.1385 30C13.1385 29.5755 13.1453 29.3217 13.1565 29.1357C13.2172 27.9453 13.701 27.8074 14.6415 27.8074ZM43.68 27.9059H45.2325C45.6375 27.9059 45.8918 28.0919 45.8918 28.5427C45.8918 28.9278 45.6398 29.1663 45.2325 29.1663H43.68V27.9059ZM52.9297 28.046H52.9433L53.7397 30.7155H52.1355L52.9297 28.046ZM43.6822 30.6871H45.2325C45.8603 30.6871 45.9907 30.9584 45.9907 31.3939C45.9907 31.8293 45.7433 32.0941 45.2325 32.0941H43.68V30.6871H43.6822Z" fill="white"/>
</svg>
