<svg width="60" height="60" viewBox="0 0 60 60" fill="none" xmlns="http://www.w3.org/2000/svg">
<rect width="60" height="60" rx="13" fill="#0D68E0"/>
<path d="M37.96 38.0002C37.8751 38.0002 37.7937 37.9664 37.7337 37.9064C37.6737 37.8464 37.64 37.765 37.64 37.6802V22.3202C37.64 22.2353 37.6737 22.1539 37.7337 22.0939C37.7937 22.0339 37.8751 22.0002 37.96 22.0002H41.67C41.7129 21.9988 41.7555 22.0061 41.7955 22.0216C41.8355 22.0371 41.872 22.0604 41.9028 22.0903C41.9335 22.1201 41.958 22.1559 41.9747 22.1953C41.9914 22.2348 42 22.2773 42 22.3202V37.6802C42 37.723 41.9914 37.7655 41.9747 37.805C41.958 37.8445 41.9335 37.8802 41.9028 37.91C41.872 37.9399 41.8355 37.9632 41.7955 37.9787C41.7555 37.9942 41.7129 38.0015 41.67 38.0002H37.96ZM31.74 38.0002C31.74 38.0002 31.44 37.9102 31.44 37.6802V28.2502C31.4495 27.9563 31.3994 27.6637 31.2928 27.3897C31.1862 27.1157 31.0254 26.8662 30.8198 26.656C30.6143 26.4458 30.3684 26.2793 30.0969 26.1666C29.8254 26.0539 29.5339 25.9973 29.24 26.0002H22.3C21.9 26.0002 22 26.3002 22 26.3002V37.6802C22 37.9502 21.7 38.0002 21.7 38.0002H18.33C18.2871 38.0015 18.2445 37.9942 18.2045 37.9787C18.1645 37.9632 18.128 37.9399 18.0972 37.91C18.0665 37.8802 18.042 37.8445 18.0253 37.805C18.0086 37.7655 18 37.723 18 37.6802V22.3202C18 22.2773 18.0086 22.2348 18.0253 22.1953C18.042 22.1559 18.0665 22.1201 18.0972 22.0903C18.128 22.0604 18.1645 22.0371 18.2045 22.0216C18.2445 22.0061 18.2871 21.9988 18.33 22.0002H31.19C32.3182 22.0081 33.3976 22.4611 34.1935 23.2607C34.9894 24.0604 35.4374 25.1419 35.44 26.2702L35.45 37.6802C35.45 37.765 35.4163 37.8464 35.3563 37.9064C35.2963 37.9664 35.2149 38.0002 35.13 38.0002H31.74ZM24.84 38.0002C24.7604 38.0002 24.6841 37.9685 24.6279 37.9123C24.5716 37.856 24.54 37.7797 24.54 37.7002V28.7002C24.54 28.6206 24.5716 28.5443 24.6279 28.488C24.6841 28.4318 24.7604 28.4002 24.84 28.4002H28.61C28.6878 28.4028 28.7616 28.4355 28.8157 28.4915C28.8698 28.5475 28.9 28.6223 28.9 28.7002V37.7002C28.9 37.7797 28.8684 37.856 28.8121 37.9123C28.7559 37.9685 28.6796 38.0002 28.6 38.0002H24.84Z" fill="white"/>
</svg>
